<svg xmlns="http://www.w3.org/2000/svg" height="820" preserveAspectRatio="xMidYMid meet" style="display: block;" version="1.1" viewBox="615 610 820 820" width="820">
<path d="M 1002.83 633.312 C 1219.46 621.333 1404.75 787.335 1416.55 1003.98 C 1428.36 1220.63 1262.21 1405.78 1045.56 1417.41 C 829.146 1429.03 644.247 1263.11 632.455 1046.71 C 620.663 830.307 786.437 645.276 1002.83 633.312 z" fill="rgb(28,24,16)" transform="translate(0,0)"></path>
<path d="M 799.51 1295.52 C 731.849 1246.79 686.981 1164.5 673.639 1082.89 C 658.369 990.527 680.889 895.903 736.13 820.322 C 791.944 742.858 876.297 690.799 970.562 675.639 C 1063.03 661.82 1157.21 685.126 1232.56 740.475 C 1309.83 796.125 1361.58 880.426 1376.22 974.521 C 1389.56 1064.34 1367.48 1155.82 1314.65 1229.67 C 1231.37 1343.68 1081.96 1401.25 958.319 1309.83 C 905.115 1270.03 869.858 1210.76 860.276 1145.02 C 846.389 1048.96 898.869 940.853 1001.96 926.301 C 1043.71 920.195 1086.18 931.034 1119.89 956.407 C 1152.56 980.941 1174.05 1017.53 1179.56 1058.01 C 1184.59 1094.7 1174.63 1131.87 1151.93 1161.13 C 1114.42 1209.23 1046.79 1228.98 996.034 1188.8 C 974.743 1172.08 961.027 1147.53 957.941 1120.63 C 954.973 1095.11 962.352 1069.46 978.429 1049.42 C 991.95 1032.76 1005.97 1025.27 1025.75 1018.4 L 1034.26 1016.69 C 1031.28 1016.43 1028.55 1016.12 1025.57 1015.74 L 1019.84 1016.45 C 957.734 1028.15 917.799 1082.21 931.032 1145.49 C 949.866 1235.56 1055.34 1272.7 1138.31 1256.13 C 1195.29 1244.48 1245.36 1210.78 1277.6 1162.37 C 1312.54 1109.32 1322.17 1045.03 1309.2 983.314 C 1293.51 910.308 1249.12 846.675 1186.04 806.72 C 1120.27 764.245 1039.28 751.946 963.192 768.221 C 886.451 784.471 819.223 830.349 776.117 895.886 C 729.119 970.466 713.407 1060.56 732.386 1146.65 C 744.424 1200.31 767.262 1250.96 799.51 1295.52 z" fill="rgb(247,244,236)" transform="translate(0,0)"></path>
<path d="M 1025.57 1015.74 C 1027.5 1015.4 1038.3 1013.79 1038.59 1016.18 C 1037.27 1017.11 1035.86 1016.82 1034.26 1016.69 C 1031.28 1016.43 1028.55 1016.12 1025.57 1015.74 z" fill="rgb(121,121,119)" transform="translate(0,0)"></path>
<path d="M 1022.66 797.445 C 1058.89 795.253 1105.51 806.287 1138.2 821.656 C 1198.37 849.852 1243.38 898.406 1265.86 960.997 C 1303.97 1067.14 1259.51 1177.26 1150.41 1215.02 C 1163.52 1202.71 1172.19 1195.3 1182.98 1180.54 C 1210.58 1142.26 1221.83 1094.58 1214.28 1048 C 1191.14 901.375 1017.71 840.922 903.771 931.05 C 887.075 944.257 874.629 959.304 862.413 976.524 C 860.22 979.905 858.072 983.315 855.968 986.753 C 820.375 1045.3 814.728 1115.27 830.969 1180.89 C 846.973 1243.6 883.445 1299.17 934.606 1338.8 C 949.18 1350.15 963.267 1358.62 979.028 1368.12 C 934.16 1358.55 895.757 1340.89 861.952 1309.23 C 708.887 1165.89 725.72 888.002 940.877 812.278 C 969.571 802.179 992.591 798.834 1022.66 797.445 z" fill="rgb(247,244,236)" transform="translate(0,0)"></path>
<metadata><recraft-signature>{"signed_by": "recraft", "signature_b64": "7NdcFbBZNWGFMysLd/AhqkPV3eLz4cxPw0LwfCEKxSON4DTQ4UUQS1pC7acQiaQu10z3JnzIFy3We9nleP3GCg==", "signing_algo": "Ed25519", "generation_timestamp": 1779829453, "identifier": "7548fa01-ceac-4f16-9034-9cd6d67d9c08"}</recraft-signature></metadata></svg>