<svg xmlns="http://www.w3.org/2000/svg" viewBox="0 0 113 135" fill="#E0B240" aria-hidden="true">
  <path d="M0 0 C7.135 6.116 11.371 15.367 12.254 24.676 C12.568 32.485 10.817 38.772 8 46 C7 49 7 49 7.926 51.242 C8.383 52.111 8.841 52.98 9.312 53.875 C15.383 66.743 15.241 80.913 10.875 94.312 C8.46 100.477 5.562 105.223 1 110 C0.281 110.771 -0.439 111.542 -1.18 112.336 C-11.532 122.553 -23.949 126.289 -38.272 126.317 C-52.067 126.079 -64.071 120.244 -74.125 110.961 C-85.069 99.515 -89.369 85.557 -89.293 70.012 C-88.975 63.319 -86.916 56.721 -83.855 50.777 C-82.594 48.157 -83.181 46.772 -84 44 C-84.516 42.928 -85.031 41.855 -85.562 40.75 C-88.677 32.641 -88.356 21.402 -85.25 13.312 C-84.544 11.853 -83.797 10.412 -83 9 C-82.665 8.385 -82.33 7.77 -81.984 7.137 C-80.065 3.946 -78.339 2.502 -75 1 C-74.951 1.423 -74.951 1.423 -74.703 3.562 C-73.407 13.396 -71.656 20.326 -64 27 C-63.01 27.66 -62.02 28.32 -61 29 C-58.574 28.355 -58.574 28.355 -55.688 27.188 C-40.792 21.924 -27.675 24.708 -13 29 C-3.507 20.707 -1.444 12.294 0 0 Z M-67 58 C-68.639 59.639 -68.21 61.497 -68.25 63.75 C-68.189 69.125 -67.069 71.931 -63.25 75.75 C-60.058 77.523 -57.652 77.937 -54 78 C-49.873 75.898 -47.869 74.168 -46 70 C-52.666 65.253 -59.62 61.521 -67 58 Z M-29 71 C-26.365 74.709 -24.506 76.952 -20 78 C-15.771 77.924 -13.614 77.45 -10.188 74.938 C-6.918 70.546 -5.694 66.452 -6.375 61 C-6.581 60.34 -6.787 59.68 -7 59 C-14.924 59 -23.038 66.182 -29 71 Z M-62 90 C-63 93 -63 93 -61.5 96.312 C-56.621 104.152 -49.817 107.738 -41 110 C-34.073 111.129 -26.512 109.389 -20.727 105.453 C-16.692 102.064 -13.657 98.539 -11 94 C-11.66 92.68 -12.32 91.36 -13 90 C-13.545 90.398 -14.091 90.797 -14.652 91.207 C-23.631 97.515 -31.895 100.495 -43 99 C-49.597 97.007 -54.65 94.295 -60 90 C-60.66 90 -61.32 90 -62 90 Z " transform="translate(94,4)"/>
</svg>