<svg xmlns="http://www.w3.org/2000/svg" viewBox="0 0 32 32" role="img" aria-label="Bad People canonical devil mascot">
  <rect width="32" height="32" rx="6" fill="#1F1408"/>
  <defs>
    <linearGradient id="bp-devil-grad" x1="0" y1="0" x2="0" y2="1">
      <stop offset="0%" stop-color="#F4C95D"/>
      <stop offset="100%" stop-color="#B45309"/>
    </linearGradient>
  </defs>
  <svg x="5" y="5" width="22" height="22" viewBox="0 0 1024 1024" preserveAspectRatio="xMidYMid meet">
    <g transform="translate(47.769 0.000) scale(1.345598)" fill="url(#bp-devil-grad)" fill-rule="evenodd">
      <path transform="translate(532,8)" d="M0,0 L7,4 L22,18 L30,26 L43,43 L53,58 L65,83 L73,107 L78,130 L80,147 L80,177 L77,201 L71,225 L64,244 L53,267 L43,283 L30,299 L17,312 L14,315 L25,308 L31,304 L33,304 L35,316 L36,341 L53,324 L64,315 L77,304 L97,289 L109,280 L132,264 L147,254 L150,253 L149,264 L138,315 L128,355 L117,390 L106,419 L94,444 L84,459 L76,469 L71,475 L69,475 L69,477 L58,486 L50,492 L51,501 L51,513 L47,528 L41,544 L29,569 L16,591 L2,611 L-11,627 L-22,639 L-41,658 L-49,665 L-66,679 L-80,689 L-98,701 L-123,716 L-147,729 L-175,742 L-183,745 L-190,745 L-216,734 L-236,724 L-254,714 L-277,700 L-296,687 L-312,675 L-326,663 L-339,651 L-356,634 L-365,623 L-377,608 L-395,581 L-405,563 L-415,542 L-424,515 L-425,510 L-425,502 L-423,494 L-422,492 L-427,490 L-441,478 L-451,467 L-464,449 L-476,426 L-486,402 L-498,366 L-506,337 L-512,313 L-521,272 L-524,254 L-521,254 L-500,268 L-480,282 L-459,298 L-443,311 L-430,322 L-417,334 L-410,341 L-410,343 L-408,343 L-409,341 L-409,318 L-407,304 L-403,305 L-389,314 L-394,309 L-402,302 L-411,291 L-421,277 L-431,259 L-438,244 L-447,217 L-452,192 L-454,167 L-453,142 L-449,117 L-445,102 L-437,80 L-429,64 L-421,50 L-408,33 L-399,23 L-384,8 L-375,1 L-373,1 L-376,10 L-382,27 L-386,43 L-388,58 L-388,86 L-385,106 L-380,125 L-371,146 L-362,162 L-352,175 L-343,185 L-332,195 L-317,206 L-305,213 L-299,211 L-281,203 L-257,195 L-236,190 L-216,187 L-205,186 L-172,186 L-143,189 L-120,194 L-98,201 L-79,209 L-69,213 L-54,204 L-41,194 L-29,183 L-20,173 L-8,155 L0,140 L8,118 L13,96 L15,77 L15,62 L13,44 L8,23 L0,2 Z M-12,391 L-31,399 L-47,408 L-59,416 L-74,426 L-89,436 L-119,456 L-134,463 L-141,465 L-150,464 L-157,458 L-162,450 L-163,452 L-160,461 L-155,467 L-150,471 L-140,484 L-131,493 L-119,499 L-98,499 L-80,495 L-62,487 L-51,480 L-41,471 L-34,463 L-28,452 L-23,438 L-21,427 L-21,411 L-22,399 L-9,392 Z M-363,392 L-360,395 L-351,400 L-353,410 L-353,425 L-350,440 L-344,455 L-336,467 L-322,481 L-308,489 L-294,495 L-277,499 L-254,499 L-244,494 L-235,486 L-224,472 L-219,467 L-212,459 L-210,453 L-211,449 L-218,460 L-224,464 L-233,465 L-246,461 L-262,452 L-295,430 L-305,423 L-320,413 L-338,402 L-352,395 L-360,392 Z M-355,518 L-354,526 L-347,547 L-338,567 L-325,589 L-315,602 L-304,615 L-290,629 L-279,638 L-265,648 L-247,658 L-235,664 L-215,671 L-196,674 L-179,674 L-159,671 L-139,664 L-123,656 L-109,648 L-94,637 L-83,628 L-65,610 L-54,596 L-42,578 L-30,555 L-22,534 L-19,522 L-19,519 L-24,521 L-40,531 L-65,545 L-71,549 L-77,566 L-84,579 L-93,590 L-98,595 L-99,595 L-98,582 L-101,569 L-102,567 L-107,569 L-125,577 L-144,583 L-160,586 L-170,587 L-202,587 L-223,584 L-245,578 L-265,570 L-272,567 L-275,574 L-276,588 L-274,596 L-281,590 L-290,578 L-298,562 L-302,549 L-319,539 L-348,522 Z"/>
    </g>
  </svg>
</svg>
