<svg xmlns="http://www.w3.org/2000/svg" viewBox="209.0 767.6 337.2 418.7" role="img" aria-label="Carbide C glyph">
  <path d="M 389.517 797.402 C 394.823 796.518 418.986 796.686 425.719 796.646 L 515.309 796.778 C 512.514 836.403 508.641 879.108 504.879 918.63 C 485.696 896.336 465.795 873.641 445.734 851.999 C 426.74 831.869 400.682 806.45 370.98 806.244 C 328.919 805.953 322.001 854.95 322.955 886.82 C 324.599 941.735 342.123 998.959 382.591 1037.71 C 403.229 1057.47 428.981 1069.37 457.652 1068.52 C 484.309 1066.03 502.017 1047.99 517.384 1027.73 C 515.763 1055.79 505.698 1079.34 487.978 1100.85 C 443.457 1154.89 370.256 1157.5 317.587 1113.39 C 239.218 1048.81 237.919 921.015 300.109 845.155 C 323.455 816.678 352.991 800.456 389.517 797.402 z" fill="rgb(211,147,78)"/>
</svg>
