<svg xmlns="http://www.w3.org/2000/svg" viewBox="836 1197 79 91" role="img" aria-label="Carbide coffee bean">
  <path d="M 894.621 1205.37 C 902.278 1204.06 910.712 1219.36 910.91 1226 C 911.569 1245.21 902.415 1259.07 889.371 1271.69 C 882.434 1278.4 859.391 1287.14 859.724 1273.52 C 860.382 1246.62 888.451 1246.46 894.66 1217.14 L 892.59 1213.19 C 892.463 1210.43 892.401 1208.07 892.448 1205.32 L 894.621 1205.37 z" fill="#B89045"/>
  <path d="M 857.965 1278.9 C 844.98 1268.84 840.676 1262.22 843.651 1244.99 C 846.963 1225.81 866.647 1200.22 888.045 1202.03 C 890.072 1202.2 891.384 1203.82 892.448 1205.32 C 892.401 1208.07 892.463 1210.43 892.59 1213.19 C 887.542 1227.33 883.236 1230.96 872.552 1241.11 C 855.937 1256.88 858.565 1260.27 857.965 1278.9 z" fill="#B89045"/>
  <path d="M 892.448 1205.32 L 894.621 1205.37 C 895.134 1209.88 895.101 1212.62 894.66 1217.14 L 892.59 1213.19 C 892.463 1210.43 892.401 1208.07 892.448 1205.32 z" fill="#3A2510" opacity="0.7"/>
</svg>
