<svg xmlns="http://www.w3.org/2000/svg" viewBox="349.5 663.9 491.5 693.8" role="img" aria-label="Felt f with cat ears">
  <path d="M 666.669 815.942 C 662.575 814.52 663.493 815.087 660.136 814.455 L 660.212 814.257 C 661.231 813.867 662.319 814.41 663.343 813.966 C 666.164 810.338 694.8 812.631 695.384 814.41 C 694.995 815.17 692.428 814.751 692 814.73 C 689.094 814.589 686.283 815.655 683.482 816.267 C 713.926 819.691 741.677 818.67 768.379 840.589 C 800.105 866.632 796.821 953.089 748.537 958.773 C 732.597 960.649 714.279 934.753 704.495 922.722 C 672.661 883.575 571.32 863.662 573.905 939.044 C 574.835 962.685 583.243 991.637 610.957 995.61 C 645.621 1000.58 658.081 957.119 685.608 955.434 C 716.574 953.54 724.761 1008.48 724.253 1030.6 C 724.377 1049.4 717.989 1094.16 705.08 1107.92 C 685.272 1129.04 654.478 1102.04 643.295 1085.78 C 632.954 1070.74 604.893 1066.58 593.22 1082.41 C 570.042 1113.84 585.091 1163.78 600.346 1195.67 C 610.039 1217.18 627.557 1231.48 629.004 1254.9 C 629.918 1305.21 577.699 1314.91 535.447 1317.27 C 485.397 1320.06 386.646 1320.6 389.068 1246.9 C 389.412 1236.41 407.675 1207.4 413.392 1194.57 C 425.482 1167.81 434.068 1139.6 438.936 1110.64 C 447.014 1060.86 444.554 996.856 426.182 949.713 C 418.836 928.844 402.764 904.538 401.859 882.436 C 400.19 841.679 453.539 826.554 485.683 820.853 C 511.151 816.336 542.331 816.928 569.763 816.44 C 602.063 816.044 634.366 815.878 666.669 815.942 z" fill="rgb(205,11,97)"/>
  <path d="M 395.339 856.969 C 388.918 832.469 389.303 796.789 394.419 771.563 C 399.015 751.55 406.722 721.874 422.233 707.831 C 429.661 701.106 450.77 717.086 456.988 721.834 C 487.311 744.995 511.217 774.634 530.33 807.477 C 499.54 808.541 449.402 814.62 423.719 832.142 C 432.944 838.539 417.835 834.373 419.409 838.594 C 420.62 841.841 412.208 842.624 410.262 841.533 C 404.104 845.588 399.931 851.274 395.339 856.969 z" fill="rgb(205,11,97)"/>
  <path d="M 410.262 841.533 C 414.488 837.205 418.448 834.837 423.719 832.142 C 432.944 838.539 417.835 834.373 419.409 838.594 C 420.62 841.841 412.208 842.624 410.262 841.533 z" fill="#FDE8E8"/>
  <path d="M 762.832 706.089 C 770.783 705.23 776.368 707.972 779.948 715.395 C 799.014 754.941 803.797 814.697 794.536 856.835 C 782.287 832.91 767.085 824.182 742.457 814.827 C 715.786 805.966 690.274 805.438 662.624 805.141 C 680.927 768.972 723.69 720.125 762.832 706.089 z" fill="rgb(205,11,97)"/>
</svg>
