<svg xmlns="http://www.w3.org/2000/svg" viewBox="61.08 943.19 241.53 241.53" width="512" height="512">
  <path d="M 178.117 1000.63 C 182.577 996.022 185.15 993.124 190.368 989.358 C 200.269 998.288 206.632 1004.59 208.317 1018.35 C 211.154 1020.12 211.992 1022.4 213.651 1025.36 C 228.556 1023.73 233.409 1023.45 248.373 1027.86 C 246.708 1033.64 244.797 1039.98 243.254 1045.72 L 242.792 1047.39 C 254.392 1053.42 259.733 1050.13 250.721 1067.87 C 248.626 1071.99 244.556 1075.04 240.865 1077.72 C 243.016 1079.5 245.388 1081.22 247.03 1083.43 C 239.634 1079.62 235.532 1082.14 227.014 1084.47 C 230.705 1086.3 236.634 1089.02 239.89 1091.21 C 238.047 1091.99 234.308 1093.47 232.682 1094.33 C 236.564 1106.77 236.283 1111.83 234.609 1124.55 L 234.006 1124.51 C 227.429 1124.07 225.167 1123.83 218.842 1122.75 C 217.897 1127.75 217.207 1131.8 215.931 1136.78 L 215.51 1138.48 C 186.014 1135.8 178.025 1124.37 180.113 1097.13 C 180.619 1090.53 179.927 1082.09 180.16 1075.18 L 177.78 1075.29 C 177.164 1108.22 186.609 1133.63 143.504 1138.55 C 142.433 1133.49 141.346 1128.71 140.563 1123.57 C 136.45 1123.82 128.87 1125.05 125.13 1123.89 C 123.77 1123.47 123.104 1118.65 123.022 1117.5 C 121.961 1102.54 124.352 1093.9 134.702 1083.22 C 132.04 1081.07 130.401 1081.26 126.978 1080.9 C 112.631 1077.47 103.11 1070.42 101.338 1054.54 C 105.774 1052.11 110.328 1049.9 114.984 1047.93 C 112.228 1041.55 110.289 1035.57 108.152 1028.95 C 119.501 1025.59 135.255 1022.06 146.413 1027.59 L 148.802 1026.8 C 145.994 1010.4 153.29 998.771 166.481 989.447 C 170.604 993.249 174.156 996.653 178.117 1000.63 z" fill="rgb(164,148,190)"/>
  <path d="M 182.798 1071.56 C 200.946 1072.09 223.926 1075.92 232.682 1094.33 C 236.564 1106.77 236.283 1111.83 234.609 1124.55 L 234.006 1124.51 C 227.429 1124.07 225.167 1123.83 218.842 1122.75 C 217.897 1127.75 217.207 1131.8 215.931 1136.78 L 215.51 1138.48 C 186.014 1135.8 178.025 1124.37 180.113 1097.13 C 180.619 1090.53 179.927 1082.09 180.16 1075.18 C 181.508 1073.09 188.837 1081.42 190.313 1082.82 C 193.5 1085.86 196.26 1087.97 199.684 1090.68 C 193.882 1082.12 189.653 1078.95 182.798 1071.56 z" fill="rgb(164,148,190)"/>
  <path d="M 134.702 1083.22 C 152.397 1071.83 154.643 1072.8 175.506 1070.66 C 173.651 1072.74 159.089 1088.16 159.555 1089.68 L 159.774 1089.77 C 166.595 1086.94 174.116 1072.42 177.78 1075.29 C 177.164 1108.22 186.609 1133.63 143.504 1138.55 C 142.433 1133.49 141.346 1128.71 140.563 1123.57 C 136.45 1123.82 128.87 1125.05 125.13 1123.89 C 123.77 1123.47 123.104 1118.65 123.022 1117.5 C 121.961 1102.54 124.352 1093.9 134.702 1083.22 z" fill="rgb(164,148,190)"/>
  <path d="M 213.651 1025.36 C 228.556 1023.73 233.409 1023.45 248.373 1027.86 C 246.708 1033.64 244.797 1039.98 243.254 1045.72 L 242.792 1047.39 C 254.392 1053.42 259.733 1050.13 250.721 1067.87 C 248.626 1071.99 244.556 1075.04 240.865 1077.72 C 233.915 1078.95 228.962 1082.18 220.568 1077.9 C 216.066 1075.61 210.449 1073.66 206.332 1071.54 C 194.086 1068.76 194.297 1069.02 181.813 1068.83 C 186.301 1065.23 189.66 1062.18 193.777 1058.19 C 202.052 1047.58 206.675 1042.72 209.867 1028.93 C 210.372 1026.75 211.727 1026.36 213.651 1025.36 z" fill="rgb(164,148,190)"/>
  <path d="M 108.152 1028.95 C 119.501 1025.59 135.255 1022.06 146.413 1027.59 C 149.248 1042.01 155 1046.15 162.382 1056.91 C 165.553 1059.69 179.127 1068.32 169.56 1068.66 C 168.809 1068.68 168.059 1068.72 167.31 1068.77 C 147.099 1069.53 143.141 1077.57 126.978 1080.9 C 112.631 1077.47 103.11 1070.42 101.338 1054.54 C 105.774 1052.11 110.328 1049.9 114.984 1047.93 C 112.228 1041.55 110.289 1035.57 108.152 1028.95 z" fill="rgb(164,148,190)"/>
  <path d="M 208.317 1018.35 C 211.154 1020.12 211.992 1022.4 213.651 1025.36 C 211.727 1026.36 210.372 1026.75 209.867 1028.93 C 206.675 1042.72 202.052 1047.58 193.777 1058.19 C 189.66 1062.18 186.301 1065.23 181.813 1068.83 C 194.297 1069.02 194.086 1068.76 206.332 1071.54 C 210.449 1073.66 216.066 1075.61 220.568 1077.9 C 228.962 1082.18 233.915 1078.95 240.865 1077.72 C 243.016 1079.5 245.388 1081.22 247.03 1083.43 C 239.634 1079.62 235.532 1082.14 227.014 1084.47 C 230.705 1086.3 236.634 1089.02 239.89 1091.21 C 238.047 1091.99 234.308 1093.47 232.682 1094.33 C 223.926 1075.92 200.946 1072.09 182.798 1071.56 C 189.653 1078.95 193.882 1082.12 199.684 1090.68 C 196.26 1087.97 193.5 1085.86 190.313 1082.82 C 188.837 1081.42 181.508 1073.09 180.16 1075.18 L 177.78 1075.29 C 174.116 1072.42 166.595 1086.94 159.774 1089.77 L 159.555 1089.68 C 159.089 1088.16 173.651 1072.74 175.506 1070.66 C 154.643 1072.8 152.397 1071.83 134.702 1083.22 C 132.04 1081.07 130.401 1081.26 126.978 1080.9 C 143.141 1077.57 147.099 1069.53 167.31 1068.77 C 168.059 1068.72 168.809 1068.68 169.56 1068.66 C 179.127 1068.32 165.553 1059.69 162.382 1056.91 C 155 1046.15 149.248 1042.01 146.413 1027.59 L 148.802 1026.8 L 149.314 1028.39 C 155.204 1047.25 162.131 1053.49 176.535 1066.09 C 176.836 1063.44 176.886 1051.03 178.73 1051.22 C 179.135 1051.93 178.62 1057.65 181.158 1056.65 L 181.149 1056.44 C 185.172 1060.08 183.107 1060.54 187.328 1057.35 L 187.344 1057.36 C 186.809 1058.14 186.474 1060.04 187.464 1060.65 C 199.637 1052.32 206.991 1032.54 208.317 1018.35 z" fill="rgb(232,223,226)"/>
  <path d="M 255.507 1098.03 C 258.091 1099.37 259.667 1100.06 262.355 1101.11 C 261.381 1101.72 255.954 1104.08 256.051 1104 C 251.57 1107.62 248.003 1103.35 250.899 1099.26 C 251.121 1098.95 254.129 1098.77 255.161 1098.44 L 255.507 1098.03 z" fill="rgb(236,233,228)"/>
</svg>
