<svg xmlns="http://www.w3.org/2000/svg" viewBox="218.3 712.9 537.3 568.6" role="img" aria-label="Loam L with leaf">
  <path d="M 604.971 743.713 C 605.284 744.03 605.62 744.325 605.908 744.665 C 613.21 753.268 617.601 766.578 620.095 777.393 C 635.787 845.443 568.026 881.982 544.426 936.97 C 525.676 980.659 521.683 1037.01 520.216 1084.16 C 519.362 1111.63 517.963 1203.93 537.022 1223.12 C 546.642 1232.81 562.377 1234.4 575.385 1234.43 C 614.174 1234.51 663.919 1215.19 676.854 1175.02 C 679.386 1167.16 679.179 1149.51 684.663 1144.05 C 693 1141.48 699.804 1159.08 702.61 1165.53 C 711.398 1185.75 725.198 1217.06 713.455 1238.09 C 699.89 1251.07 672.963 1247.18 654.848 1247.03 C 634.247 1246.9 613.645 1246.9 593.044 1247.03 L 494.511 1247.04 C 482.701 1247.08 435.694 1249.73 427.953 1243.47 C 428.299 1238.66 447.098 1224.17 451.805 1219.61 C 456.216 1215.32 460.352 1210.75 464.188 1205.94 C 501.442 1159.49 508.731 1074.32 505.336 1015.65 C 502.333 963.766 484.099 915.099 502.56 862.642 C 515.663 825.409 535.819 813.167 571.646 800.314 C 590.841 793.274 598.958 762.187 604.971 743.713 z" fill="rgb(150,64,49)"/>
  <path d="M 251.029 743.383 C 252.146 745.529 254.63 749.971 255.34 752.036 C 278.788 786.234 298.866 798.127 340.502 806.692 C 388.19 816.502 430.767 805.762 462.242 851.747 C 479.599 877.103 478.978 901.645 475.331 930.591 C 458.066 901.092 427.004 871.826 392.379 865.163 C 390.494 864.955 376.895 863.452 375.668 864.511 C 376.158 866.553 376.49 866.595 376.338 868.69 C 429.257 895.128 458.821 902.109 478.481 963.375 C 482.724 976.598 488.088 994.686 488.076 1008.88 C 487.336 1015.2 488.846 1017.86 482.21 1019.19 C 467.44 978.223 442.029 938.188 395.513 932.835 C 356.405 928.334 338.092 932.35 305.851 902.532 C 278.391 877.137 252.476 817.23 251.931 780.532 C 250.245 771.548 250.775 752.894 251.029 743.383 z" fill="rgb(150,64,49)"/>
  <path d="M 347.328 853.624 C 362.623 856.29 377.686 860.148 392.379 865.163 C 390.494 864.955 376.895 863.452 375.668 864.511 C 376.158 866.553 376.49 866.595 376.338 868.69 C 367.988 864.746 355.814 858.085 347.328 853.624 z" fill="#DFD9BB"/>
  <path d="M 251.029 743.383 C 252.146 745.529 254.63 749.971 255.34 752.036 C 248.802 755.768 252.691 772.689 251.931 780.532 C 250.245 771.548 250.775 752.894 251.029 743.383 z" fill="rgb(143,75,61)"/>
  <path d="M 488.076 1008.88 C 489.841 1018.12 489.284 1029.5 488.707 1038.9 C 486.481 1032.35 484.315 1025.78 482.21 1019.19 C 488.846 1017.86 487.336 1015.2 488.076 1008.88 z" fill="rgb(143,75,61)"/>
</svg>
