<svg xmlns="http://www.w3.org/2000/svg" viewBox="927.9 489.4 182.3 469.6" role="img" aria-label="Pua Aloha sprig">
  <path d="M 1037.95 719.514 C 1025.66 717.65 1019.72 714.748 1010.29 704.686 C 1003.04 696.944 997.018 672.035 1015.78 674.881 C 1022.79 675.945 1029.71 687.691 1033.08 694.388 C 1033.69 696.159 1034.29 697.165 1035.16 698.81 C 1035.63 701.455 1036.42 700.783 1039.23 701.235 C 1039.72 707.085 1040.04 711.46 1040.03 717.358 C 1041.1 717.018 1042.16 716.689 1043.24 716.37 C 1044.35 712.223 1046.51 706.389 1047.92 702.177 C 1048.57 703.041 1049.89 705.597 1050.59 706.007 C 1051.65 705.99 1051.64 704.457 1051.73 703.73 C 1057.55 696.843 1065.54 687.399 1075.53 690.412 C 1077.57 692.337 1079.43 694.219 1079.08 697.251 C 1077.23 713.659 1062.21 719.367 1049.27 721.742 C 1047.56 721.921 1046.76 721.837 1045.07 721.752 C 1039.87 732.028 1040.06 743.256 1039.88 754.66 C 1040.39 761.021 1039 766.768 1041.44 771.017 C 1046.23 760.933 1053.47 745.967 1067.11 749.082 C 1068.84 750.466 1070.72 751.637 1070.69 754.169 C 1070.46 770.921 1050.31 777.576 1038.96 782.991 C 1037.49 792.439 1036.96 801.332 1035.63 810.34 C 1035.27 806.902 1033.92 805.721 1031.82 802.956 C 1034.73 795.558 1037.36 731.401 1037.95 719.514 z" fill="rgb(38,77,46)"/>
  <path d="M 1045.07 721.752 C 1047.61 716.919 1066.97 696.112 1071.45 695.971 C 1073.12 697.257 1068.52 700.4 1067.61 701.337 C 1063.3 705.765 1054 711.518 1052.2 717.445 C 1051.89 718.491 1051.6 718.943 1050.9 719.773 L 1049.27 721.742 C 1047.56 721.921 1046.76 721.837 1045.07 721.752 z" fill="rgb(118,137,117)"/>
  <path d="M 1040.81 774.651 C 1051.56 767.728 1056.03 760.989 1062.34 756.654 C 1062.73 756.889 1062.83 757.2 1063.04 757.593 C 1062.46 761.962 1045.14 774.192 1040.36 776.027 L 1040.81 774.651 z" fill="rgb(155,170,154)"/>
  <path d="M 1040.36 776.027 C 1036.08 777.163 1039.37 757.674 1039.88 754.66 C 1040.39 761.021 1039 766.768 1041.44 771.017 L 1040.81 774.651 L 1040.36 776.027 z" fill="rgb(251,244,230)"/>
  <path d="M 1040.03 717.358 C 1041.1 717.018 1042.16 716.689 1043.24 716.37 C 1042.11 718.996 1039.9 724.075 1040.03 717.358 z" fill="rgb(251,244,230)"/>
  <path d="M 1012.73 682.741 C 1018.59 685.811 1028.72 702.145 1031.94 708.525 L 1034.39 713.405 C 1028.97 710.697 1018.11 689.604 1012.73 682.741 z" fill="rgb(118,137,117)"/>
  <path d="M 1020.96 597.745 C 1021.37 590.029 1026.96 577.75 1032.54 573.109 C 1044.8 562.909 1048.14 578.187 1046.68 586.993 C 1044.88 597.808 1033.12 617.732 1025.43 623.475 C 1023.83 623.554 1022.45 624.744 1021.32 625.848 C 1000.51 630.084 981.02 618.294 973.24 598.476 C 971.419 593.836 974.974 587.333 979.994 586.843 C 994.431 585.435 1005.58 599.224 1016.04 606.209 C 1017.71 606.933 1017.86 606.65 1019.46 605.83 C 1019.2 604.493 1018.93 603.211 1018.74 601.861 C 1019.54 600.471 1020.23 599.161 1020.96 597.745 z" fill="rgb(38,77,46)"/>
  <path d="M 1018.74 601.861 C 1019.54 600.471 1020.23 599.161 1020.96 597.745 C 1021.03 600.024 1022.11 605.152 1019.46 605.83 C 1019.2 604.493 1018.93 603.211 1018.74 601.861 z" fill="rgb(251,244,230)"/>
  <path d="M 1039.94 574.843 L 1040.33 574.973 C 1040.73 576.069 1039.25 577.395 1038.61 578.371 C 1033.09 586.765 1029.42 598.581 1028.15 608.522 C 1027.55 613.268 1028.32 612.382 1025.56 616.286 C 1024.29 609.35 1032.69 576.504 1039.94 574.843 z" fill="rgb(155,170,154)"/>
  <path d="M 982.76 595.155 C 991.987 598.901 1009.45 611.316 1016.56 618.123 C 1011.75 616.551 985.57 599.019 982.76 595.155 z" fill="rgb(155,170,154)"/>
  <path d="M 998.493 537.2 C 998.08 531.608 993.359 510.729 1006.55 517.881 C 1011.24 520.42 1009.2 542.581 1008.8 547.553 C 1008.95 550.144 1008.51 552.191 1008.28 554.751 C 1015.06 564.722 1008.02 565.846 1008.28 573.934 L 1006.95 574.045 C 1005.13 571.655 1000.08 572.102 997.999 572.813 C 989.254 575.799 960.452 551.912 980.449 551.776 C 978.087 549.003 968.156 541.546 968.273 538.594 C 968.619 529.892 982.411 533.711 981.877 531.139 C 980.786 525.885 980.893 515.059 989.367 518.254 C 991.059 518.892 995.905 537.686 996.577 539.827 C 997.263 538.918 997.843 538.141 998.493 537.2 z" fill="rgb(230,117,110)"/>
  <path d="M 1006.95 574.045 C 1005.13 571.655 1000.08 572.102 997.999 572.813 C 989.254 575.799 960.452 551.912 980.449 551.776 C 981.873 552.448 982.321 552.662 984.048 552.913 C 988.483 553.556 995.246 564.659 999.314 563.614 C 1000.75 563.245 1003.56 557.095 1005.34 555.322 L 1008.28 554.751 C 1015.06 564.722 1008.02 565.846 1008.28 573.934 L 1006.95 574.045 z" fill="rgb(38,77,46)"/>
  <path d="M 1002.22 544.267 C 1005.2 539.635 1004.51 539.605 1005.5 534.445 C 1007.9 541.747 1007.31 539.314 1008.8 547.553 C 1008.95 550.144 1008.51 552.191 1008.28 554.751 L 1005.34 555.322 C 997.747 551.935 1004 550.248 1002.22 544.267 z" fill="rgb(232,154,133)"/>
  <path d="M 1002.22 544.267 C 1001.82 541.216 998.787 519.721 1003.46 519.612 C 1007.65 519.514 1005.7 532.206 1005.5 534.445 C 1004.51 539.605 1005.2 539.635 1002.22 544.267 z" fill="rgb(251,244,230)"/>
  <path d="M 998.493 537.2 C 999.261 539.154 1000.88 547.512 999.107 549.216 C 997.87 549.238 996.718 541.064 996.577 539.827 C 997.263 538.918 997.843 538.141 998.493 537.2 z" fill="rgb(245,222,218)"/>
  <path d="M 974.163 533.477 C 977.304 534.567 980.135 535.284 983.123 536.255 C 984.225 537.957 994.109 552.764 994.134 552.825 C 993.889 553.466 993.307 553.75 992.722 554.197 C 992.935 554.304 984.829 550.382 985.522 551.306 C 980.551 544.679 968.886 541.711 974.163 533.477 z" fill="rgb(245,222,218)"/>
  <path d="M 985.856 521.469 C 990.72 525.87 996.591 542.566 995.231 549.589 C 986.213 537.271 982.434 535.38 985.856 521.469 z" fill="rgb(245,222,218)"/>
  <path d="M 975.901 730.969 C 969.639 731.526 959.752 726.919 955.317 723.666 C 949.824 719.166 949.212 718.162 954.81 713.739 C 957.331 711.746 952.149 707.056 957.251 703.57 C 962.082 700.269 962.317 703.298 963.55 702.647 C 964.03 701.662 963.796 699.637 963.8 698.501 C 962.49 695.708 969.127 690.257 970.956 692.077 C 974.053 696.235 977.524 682.291 981.425 687.923 C 987.882 697.243 986.559 707.206 986.809 717.431 L 987.782 718.745 C 991.81 723.656 988.149 728.124 986.262 734.075 C 985.508 735.491 985.279 735.344 983.683 736.224 C 980.085 732.854 980.467 733.088 975.901 730.969 z" fill="rgb(225,99,89)"/>
  <path d="M 975.901 730.969 C 976.122 729.459 976.342 727.948 976.563 726.438 C 983.345 725.504 982.542 721.411 986.809 717.431 L 987.782 718.745 C 991.81 723.656 988.149 728.124 986.262 734.075 C 985.508 735.491 985.279 735.344 983.683 736.224 C 980.085 732.854 980.467 733.088 975.901 730.969 z" fill="rgb(38,77,46)"/>
  <path d="M 954.722 716.069 C 966.605 716.009 961.196 718.486 968.762 721.581 C 971.973 720.132 971.262 717.918 975.899 725.986 C 971.454 729.916 956.317 724.121 954.722 716.069 z" fill="rgb(245,222,218)"/>
  <path d="M 970.01 694.317 C 973.673 696.103 973.512 697.267 974.64 701.117 L 975.173 702.974 C 975.947 705.618 980.194 716.619 977.17 717.279 C 970.67 708.793 964.536 705.365 969.359 695.682 L 970.01 694.317 z" fill="rgb(251,244,230)"/>
  <path d="M 978.768 689.524 C 983.971 693.853 984.209 708.761 982.192 714.382 C 979.362 708.035 974.967 696.005 978.768 689.524 z" fill="rgb(251,244,230)"/>
  <path d="M 958.278 705.067 C 959.146 705.034 963.485 704.65 963.948 704.977 C 968.197 707.984 973.074 715.411 974.998 720.128 C 969.934 716.893 964.312 711.583 958.234 709.081 C 957.693 708.858 957.965 706.91 958.074 706.32 L 958.278 705.067 z" fill="rgb(245,222,218)"/>
  <path d="M 1003.78 763.506 C 1010.76 775.653 1023.22 790.711 1031.82 802.956 C 1033.92 805.721 1035.27 806.902 1035.63 810.34 L 1031.19 834.562 C 1036.8 826.462 1051.69 803.467 1058.74 798.201 C 1059.84 799.604 1059.79 799.671 1061.27 800.538 C 1053.07 805.627 1037.9 829.345 1031.54 838.545 C 1029.15 866.386 1027.38 893.327 1031.41 921.099 C 1032.01 925.161 1033.69 934.102 1031.83 937.601 L 1030.42 936.851 C 1021.01 898.899 1026.56 847.736 1032.47 809.335 C 1023.76 794.878 1010.29 779.93 1002.04 765.736 C 1002.63 765 1003.21 764.257 1003.78 763.506 z" fill="rgb(62,80,61)"/>
  <path d="M 983.683 736.224 C 985.279 735.344 985.508 735.491 986.262 734.075 C 987.941 739.445 993.987 748.562 994.196 750.495 L 997.255 752.8 C 1001.84 755.598 1001.08 759.86 1002.95 758.743 C 1004.91 759.212 1006.77 759.626 1008.69 760.207 C 1007.13 761.455 1005.46 762.43 1003.78 763.506 C 1003.21 764.257 1002.63 765 1002.04 765.736 C 1000.85 764.623 999.502 763.192 999.348 763.219 C 985.7 765.675 974.951 768.108 962.777 763.115 C 964.149 761.799 965.53 760.522 966.893 759.195 L 966.824 756.967 L 963.831 756.838 C 964.006 754.726 964.182 752.938 964.479 750.851 C 969.547 750.165 976.926 747.361 979.89 752.129 C 982.871 749.352 990.471 753.025 994.414 754.069 C 991.956 750.491 984.18 740.209 983.683 736.224 z" fill="rgb(89,110,88)"/>
  <path d="M 994.196 750.495 L 997.255 752.8 C 1001.84 755.598 1001.08 759.86 1002.95 758.743 C 1004.91 759.212 1006.77 759.626 1008.69 760.207 C 1007.13 761.455 1005.46 762.43 1003.78 763.506 C 1003.21 764.257 1002.63 765 1002.04 765.736 C 1000.85 764.623 999.502 763.192 999.348 763.219 C 985.7 765.675 974.951 768.108 962.777 763.115 C 964.149 761.799 965.53 760.522 966.893 759.195 C 972.311 759.282 994.067 761.751 997.072 757.37 C 996.94 756.874 996.705 756.411 996.38 756.012 C 994.219 753.314 994.345 753.793 994.196 750.495 z" fill="rgb(38,77,46)"/>
  <path d="M 964.479 750.851 C 969.547 750.165 976.926 747.361 979.89 752.129 C 973.953 758.069 975.71 756.092 966.824 756.967 L 963.831 756.838 C 964.006 754.726 964.182 752.938 964.479 750.851 z" fill="rgb(38,77,46)"/>
  <path d="M 1063.22 658.898 C 1064.72 656.707 1072.45 643.76 1073.44 643.143 C 1074.4 643.095 1075.23 643.632 1076.13 644.03 C 1077.64 644.955 1078.47 645.122 1080.19 645.704 C 1085.67 648.082 1087.27 651.835 1088.84 656.966 L 1088.27 658.359 C 1086.83 662.108 1083.46 664.115 1080.2 666.14 C 1078.06 666.737 1077 667.509 1075.82 669.409 C 1072.21 672.39 1072.67 672.601 1068.16 672.76 C 1064.92 671.331 1064.94 671.527 1061.37 671.778 C 1058.62 667.084 1060.29 663.27 1063.22 658.898 z" fill="rgb(230,117,110)"/>
  <path d="M 1063.22 658.898 C 1070.45 661.044 1070.05 663.597 1075.82 669.409 C 1072.21 672.39 1072.67 672.601 1068.16 672.76 C 1064.92 671.331 1064.94 671.527 1061.37 671.778 C 1058.62 667.084 1060.29 663.27 1063.22 658.898 z" fill="rgb(38,77,46)"/>
  <path d="M 1088.84 656.966 L 1088.27 658.359 C 1086.83 662.108 1083.46 664.115 1080.2 666.14 C 1079.47 665.474 1076.78 663.747 1076.86 663.052 C 1077.32 659.155 1085.88 657.45 1088.84 656.966 z" fill="rgb(225,99,89)"/>
  <path d="M 1076.13 644.03 C 1077.64 644.955 1078.47 645.122 1080.19 645.704 C 1076.07 649.338 1071.83 654.196 1067.83 658.168 C 1070.54 653.397 1073.8 649.005 1076.13 644.03 z" fill="rgb(232,154,133)"/>
  <path d="M 1060.99 787.064 C 1064.02 784.805 1072.84 770.419 1074.58 772.507 C 1075.26 773.323 1073.31 775.747 1073.61 778.457 C 1079.5 775.75 1081.27 780.529 1086.88 785.267 C 1082.72 788.191 1075.71 793.237 1071.24 795.427 C 1066.53 799.366 1066.94 799.581 1061.27 800.538 C 1059.79 799.671 1059.84 799.604 1058.74 798.201 C 1058.38 791.461 1057.63 792.43 1060.99 787.064 z" fill="rgb(230,117,110)"/>
  <path d="M 1060.99 787.064 C 1062.94 788.286 1064.88 789.547 1066.79 790.845 C 1068.65 792.343 1069.73 793.523 1071.24 795.427 C 1066.53 799.366 1066.94 799.581 1061.27 800.538 C 1059.79 799.671 1059.84 799.604 1058.74 798.201 C 1058.38 791.461 1057.63 792.43 1060.99 787.064 z" fill="rgb(38,77,46)"/>
  <path d="M 1004.97 732.746 L 1006.29 732.146 C 1009.65 730.492 1013.39 730.305 1014.58 734.627 C 1017.27 744.382 1012.68 752.006 1008.69 760.207 C 1006.77 759.626 1004.91 759.212 1002.95 758.743 C 1001.08 759.86 1001.84 755.598 997.255 752.8 C 998.658 744.892 999.918 739.075 1004.97 732.746 z" fill="rgb(38,77,46)"/>
  <path d="M 997.255 752.8 C 998.658 744.892 999.918 739.075 1004.97 732.746 C 1006.86 745.809 1004.3 746.43 1002.95 758.743 C 1001.08 759.86 1001.84 755.598 997.255 752.8 z" fill="rgb(118,137,117)"/>
  <path d="M 1021.32 625.848 C 1022.45 624.744 1023.83 623.554 1025.43 623.475 C 1027.03 633.517 1030.08 643.645 1032.21 653.58 C 1035.5 668.89 1038.14 685.601 1039.23 701.235 C 1036.42 700.783 1035.63 701.455 1035.16 698.81 C 1034.29 697.165 1033.69 696.159 1033.08 694.388 L 1034.5 689.487 C 1033.33 679.893 1025.86 631.611 1021.32 625.848 z" fill="rgb(62,80,61)"/>
  <path d="M 1034.5 689.487 C 1035.01 692.236 1035.57 696.016 1035.16 698.81 C 1034.29 697.165 1033.69 696.159 1033.08 694.388 L 1034.5 689.487 z" fill="rgb(251,244,230)"/>
  <path d="M 1061.37 671.778 C 1064.94 671.527 1064.92 671.331 1068.16 672.76 C 1061.01 674.327 1053.08 696.956 1051.73 703.73 C 1051.64 704.457 1051.65 705.99 1050.59 706.007 C 1049.89 705.597 1048.57 703.041 1047.92 702.177 C 1048.48 701.105 1061.16 672.789 1061.05 673.37 L 1061.37 671.778 z" fill="rgb(62,80,61)"/>
  <path d="M 1006.95 574.045 L 1008.28 573.934 C 1011.79 580.12 1016.38 594.827 1018.74 601.861 C 1018.93 603.211 1019.2 604.493 1019.46 605.83 C 1017.86 606.65 1017.71 606.933 1016.04 606.209 C 1013.67 595.71 1008.39 582.313 1006.95 574.045 z" fill="rgb(62,80,61)"/>
  <path d="M 958.102 756.788 C 960.577 752.695 960.167 752.709 964.479 750.851 C 964.182 752.938 964.006 754.726 963.831 756.838 L 966.824 756.967 L 966.893 759.195 C 965.53 760.522 964.149 761.799 962.777 763.115 C 959.975 761.08 958.291 760.494 958.102 756.788 z" fill="rgb(38,77,46)"/>
</svg>
