<svg xmlns="http://www.w3.org/2000/svg" viewBox="0 0 1000 1000" preserveAspectRatio="xMidYMid slice" role="img" aria-label="Felt — concept brand vignette with official wordmark">
  <!-- canvas: warm pink pet brand -->
  <defs>
    <radialGradient id="ft-bg" cx="30%" cy="20%" r="90%">
      <stop offset="0%" stop-color="#FEEFEF"/>
      <stop offset="100%" stop-color="#FCE7E7"/>
    </radialGradient>
    <radialGradient id="ft-blob" cx="50%" cy="50%" r="50%">
      <stop offset="0%" stop-color="#FBD0CE"/>
      <stop offset="100%" stop-color="#F8B8B6"/>
    </radialGradient>
  </defs>
  <rect width="1000" height="1000" fill="url(#ft-bg)"/>

  <!-- soft blob behind logo -->
  <ellipse cx="500" cy="490" rx="340" ry="240" fill="url(#ft-blob)" opacity="0.55"/>

  <!-- official Felt wordmark (cat-integrated chunky display) — scaled from 2048 source -->
  <g transform="translate(-129.16,-93.88) scale(0.588)">
    <path d="M 666.669 815.942 C 662.575 814.52 663.493 815.087 660.136 814.455 L 660.212 814.257 C 661.231 813.867 662.319 814.41 663.343 813.966 C 666.164 810.338 694.8 812.631 695.384 814.41 C 694.995 815.17 692.428 814.751 692 814.73 C 689.094 814.589 686.283 815.655 683.482 816.267 C 713.926 819.691 741.677 818.67 768.379 840.589 C 800.105 866.632 796.821 953.089 748.537 958.773 C 732.597 960.649 714.279 934.753 704.495 922.722 C 672.661 883.575 571.32 863.662 573.905 939.044 C 574.835 962.685 583.243 991.637 610.957 995.61 C 645.621 1000.58 658.081 957.119 685.608 955.434 C 716.574 953.54 724.761 1008.48 724.253 1030.6 C 724.377 1049.4 717.989 1094.16 705.08 1107.92 C 685.272 1129.04 654.478 1102.04 643.295 1085.78 C 632.954 1070.74 604.893 1066.58 593.22 1082.41 C 570.042 1113.84 585.091 1163.78 600.346 1195.67 C 610.039 1217.18 627.557 1231.48 629.004 1254.9 C 629.918 1305.21 577.699 1314.91 535.447 1317.27 C 485.397 1320.06 386.646 1320.6 389.068 1246.9 C 389.412 1236.41 407.675 1207.4 413.392 1194.57 C 425.482 1167.81 434.068 1139.6 438.936 1110.64 C 447.014 1060.86 444.554 996.856 426.182 949.713 C 418.836 928.844 402.764 904.538 401.859 882.436 C 400.19 841.679 453.539 826.554 485.683 820.853 C 511.151 816.336 542.331 816.928 569.763 816.44 C 602.063 816.044 634.366 815.878 666.669 815.942 z" fill="rgb(205,11,97)"/>
    <path d="M 666.669 815.942 C 662.575 814.52 663.493 815.087 660.136 814.455 L 660.212 814.257 C 661.231 813.867 662.319 814.41 663.343 813.966 C 666.164 810.338 694.8 812.631 695.384 814.41 C 694.995 815.17 692.428 814.751 692 814.73 C 689.094 814.589 686.283 815.655 683.482 816.267 C 680.321 816.399 669.712 816.255 666.669 815.942 z" fill="#FBD2D2"/>
    <path d="M 1413.06 1318.77 C 1378.82 1316.69 1349.83 1310.86 1325.29 1283.83 C 1303.26 1259.55 1298.09 1225.98 1299.65 1194.34 C 1301.08 1165.45 1310.25 1147 1315.98 1120.83 C 1321.93 1093.67 1329.87 1031.1 1310.15 1007.77 C 1296.36 991.438 1266.91 992.697 1268.27 963.414 C 1268.71 953.836 1272.92 941.549 1280.76 935.906 C 1299.9 922.197 1323.44 924.09 1342.29 908.222 C 1354.22 898.183 1362.6 889.711 1371.72 876.089 C 1386.4 854.15 1397.24 822.715 1428.97 822.536 C 1434.98 822.502 1441.37 827.68 1444.59 831.957 C 1469.36 855.819 1428.86 932.536 1470.99 938.611 C 1495.95 942.213 1520.74 936.181 1514.39 978.038 C 1513.62 983.14 1509.75 989.943 1504.88 992.499 C 1484.3 1000.56 1450.94 984.297 1443.65 1016.64 C 1435.11 1054.54 1441.56 1104.29 1451.97 1141.78 C 1458.92 1166.8 1474.69 1198.13 1501.08 1206.23 C 1515.49 1210.57 1531.04 1208.88 1544.19 1201.55 C 1561.4 1192.09 1575.56 1169.18 1579.96 1150.47 C 1602.69 1053.89 1518.48 964.085 1569.64 869.713 C 1594.34 824.142 1642.29 792.383 1695.1 806.153 C 1718.67 812.187 1738.91 827.288 1751.39 848.168 C 1766.01 873.129 1768.78 909.304 1739.27 925.632 C 1716.03 938.493 1677.49 926.876 1688.46 894.643 C 1692.1 885.289 1706.96 873.708 1701.35 862.196 C 1691.24 841.459 1664.63 841.34 1645.97 849.68 C 1624.2 859.411 1608.41 880.022 1600.18 902.051 C 1585.65 940.92 1598.08 984.445 1608.88 1022.62 C 1629.2 1098.46 1636.76 1160.89 1585.52 1226.84 C 1560.78 1258.55 1528.85 1283.9 1492.36 1300.81 C 1474.53 1309.12 1434.93 1321.45 1415.7 1317.99 L 1413.06 1318.77 z" fill="rgb(205,11,97)"/>
    <path d="M 1067.27 1103.46 C 1038.3 1159.71 965.986 1144.89 914.243 1148.93 C 908.729 1149.8 891.345 1148.25 890.802 1155.98 C 889.953 1168.09 911.464 1178.39 920.601 1181.5 C 958.765 1194.5 997.805 1184.91 1032.6 1167.26 C 1040 1164.22 1049.14 1160.19 1057.09 1161.68 C 1072.58 1164.39 1078.43 1184.3 1073.85 1197.53 C 1053.46 1256.46 996.659 1308.4 933.625 1315.87 C 908.516 1318.84 873.634 1317.88 849.545 1311.34 C 806.665 1299.65 770.286 1271.21 748.588 1232.42 C 721.513 1184.6 718.919 1127.51 733.072 1075.15 C 761.993 970.8 861.592 910.885 967.003 937.857 C 1028.9 953.693 1091.36 1028.57 1071.05 1093.68 C 1070.04 1096.48 1068.57 1100.99 1067.27 1103.46 z" fill="rgb(205,11,97)"/>
    <path d="M 905.959 990.111 C 953.914 989.424 971.219 1082.43 913.739 1094.17 C 847.744 1093.58 860.709 1001.06 905.959 990.111 z" fill="#FBD2D2"/>
    <path d="M 1161.28 808.425 C 1161.44 808.403 1161.61 808.38 1161.77 808.358 C 1198.01 807.006 1259.49 812.236 1272.63 853.731 C 1279.58 875.686 1264.24 891.992 1255.18 909.305 C 1240.91 937.341 1236.66 969.735 1234.79 1000.84 C 1230.38 1074.31 1233.75 1151.82 1269.93 1217.81 C 1276.76 1230.26 1284.63 1243.94 1285.57 1258.27 C 1286.28 1270.8 1281.83 1283.08 1273.26 1292.25 C 1252.08 1315.34 1213.08 1318.4 1183.87 1319.15 C 1150.91 1319.28 1110.67 1319.23 1083.24 1298.63 C 1043.4 1268.71 1077.61 1221.61 1091.17 1187.04 C 1099.83 1165.07 1106.08 1142.23 1109.82 1118.92 C 1119.53 1057.32 1117.57 983.095 1094.06 924.985 C 1089.13 906.571 1070.54 889.215 1069.63 870.137 C 1067.42 823.678 1129.93 810.379 1161.28 808.425 z" fill="rgb(205,11,97)"/>
    <path d="M 395.339 856.969 C 388.918 832.469 389.303 796.789 394.419 771.563 C 399.015 751.55 406.722 721.874 422.233 707.831 C 429.661 701.106 450.77 717.086 456.988 721.834 C 487.311 744.995 511.217 774.634 530.33 807.477 C 499.54 808.541 449.402 814.62 423.719 832.142 C 432.944 838.539 417.835 834.373 419.409 838.594 C 420.62 841.841 412.208 842.624 410.262 841.533 C 404.104 845.588 399.931 851.274 395.339 856.969 z" fill="rgb(205,11,97)"/>
    <path d="M 410.262 841.533 C 414.488 837.205 418.448 834.837 423.719 832.142 C 432.944 838.539 417.835 834.373 419.409 838.594 C 420.62 841.841 412.208 842.624 410.262 841.533 z" fill="#FDE8E8"/>
    <path d="M 762.832 706.089 C 770.783 705.23 776.368 707.972 779.948 715.395 C 799.014 754.941 803.797 814.697 794.536 856.835 C 782.287 832.91 767.085 824.182 742.457 814.827 C 715.786 805.966 690.274 805.438 662.624 805.141 C 680.927 768.972 723.69 720.125 762.832 706.089 z" fill="rgb(205,11,97)"/>
  </g>

  <!-- pet category footer — functional brand info -->
  <g font-family="'Quicksand','Avenir','Trebuchet MS',sans-serif" font-size="22" letter-spacing="4" font-weight="700" fill="#CD0B61">
    <text x="100" y="930">DOGS  ·  CATS  ·  CRITTERS</text>
    <text x="900" y="930" text-anchor="end">FELT.PET →</text>
  </g>
</svg>
