<svg xmlns="http://www.w3.org/2000/svg" height="2048" preserveAspectRatio="none" style="display: block;" version="1.1" viewBox="0 0 2048 2048" width="2048">
<path d="M 0 0 L 2048 0 L 2048 2048 L 0 2048 L 0 0 z" fill="rgb(236,233,228)" transform="translate(0,0)"></path>
<path d="M 465.466 1089.15 C 484.882 1065.71 513.911 1028.76 544.999 1021.42 C 549.808 1020.28 559.76 1024.25 563.576 1027.51 C 576.103 1038.2 568.531 1060.64 562.835 1073.23 C 555.075 1090.87 543.058 1108.2 533.897 1124.75 C 529.377 1132.91 515.11 1155.33 514.471 1163.27 C 512.416 1188.81 544.664 1166.93 551.588 1160.43 C 574.221 1139.2 587.376 1117.86 601.575 1091.03 C 618.408 1061.86 650.957 1028.41 685.37 1022.14 C 706.265 1018.21 715.339 1032.23 721.782 1049.43 C 725.89 1041.34 729.89 1033.19 733.779 1024.98 L 758.06 1025.12 C 734.238 1068.05 706.94 1109.68 686.771 1154.39 C 679.717 1170.61 691.335 1179.76 706.199 1172.52 C 729.492 1161.17 744.112 1135.1 759.956 1115.77 C 782.248 1088.57 793.986 1055.48 811.33 1025.02 L 831.94 1025.12 C 814.597 1062.33 794.643 1097.58 777.678 1134.91 C 796.118 1109.56 866.663 1001.28 905.89 1025.48 C 947.877 1051.38 846.432 1151.53 863.199 1172.94 C 882.563 1184.71 925.294 1130.73 934.241 1115.93 C 956.464 1079.16 979.136 1041.39 1021.38 1024.87 C 1046.76 1014.95 1060.33 1025.65 1069.24 1049.69 C 1073.64 1041.52 1077.94 1033.3 1082.13 1025.02 L 1106.46 1024.98 C 1093.9 1046.78 1027.48 1151.99 1033.19 1168.19 C 1034.12 1170.81 1035.49 1172.3 1037.97 1173.54 C 1043 1176.06 1050.74 1173.93 1055.48 1171.71 C 1071.38 1164.26 1086.56 1144.79 1096.73 1130.93 C 1100.43 1125.88 1103.44 1119.8 1107.99 1115.45 C 1110.13 1113.41 1111.47 1112.85 1114.37 1113.24 L 1115.55 1115.01 C 1111.79 1130.14 1077.31 1170.02 1062.7 1177.28 C 1020.82 1198.07 1014.45 1162.57 1025.59 1131.23 C 1026.45 1128.85 1027.34 1126.48 1028.28 1124.13 C 1014.19 1140.89 998.6 1166.58 979.471 1177.06 C 941.775 1197.71 930.657 1164.51 931.09 1134.96 C 917.156 1151.14 894.307 1181.54 871.93 1183.68 C 864.675 1184.39 857.457 1182.01 852.041 1177.13 C 829.15 1156.56 858.021 1109.31 869.92 1090.11 L 874.551 1083.09 L 875.333 1081.68 C 878.697 1075.7 910.854 1034.66 895.494 1030.73 C 879.478 1026.64 854.687 1052.63 844.764 1062.7 C 811.254 1098.47 784.35 1139.74 757.665 1180.54 C 750.107 1180.57 742.248 1180.72 734.726 1180.45 L 742.671 1162.7 C 739.703 1161.11 738.747 1160.02 735.423 1159.37 C 721.948 1173.43 690.962 1199.87 674.75 1170.77 C 667.979 1158.61 675.877 1136.56 680.646 1124.02 C 664.42 1144.4 640.216 1181.68 612.803 1183.48 C 588.372 1185.08 583.223 1156.01 582.841 1138.07 C 573.742 1149.88 563.384 1161.55 551.945 1171.15 C 542.729 1178.89 532.265 1185.22 519.719 1183.84 C 513.27 1183.13 508.775 1181.44 504.823 1176.21 C 499.745 1169.49 498.426 1161.22 498.681 1152.98 C 500.096 1107.28 552.476 1061.59 554.309 1037.51 C 554.523 1034.7 553.838 1033.77 552.063 1031.72 C 516.226 1018.59 429.521 1153.77 412.147 1180.3 L 388.762 1180.24 C 395.712 1167.05 403.107 1149.76 409.793 1135.96 L 443.85 1067.31 C 442.225 1065.32 442.295 1065.44 440.015 1064.23 C 390.209 1097.21 340.677 1119.18 279.909 1105.93 C 275.365 1104.94 269.023 1103.87 265.247 1101.3 L 262.355 1101.11 C 259.667 1100.06 258.091 1099.37 255.507 1098.03 L 255.161 1098.44 L 239.89 1091.21 C 236.634 1089.02 230.705 1086.3 227.014 1084.47 C 235.532 1082.14 239.634 1079.62 247.03 1083.43 C 260.122 1093.68 288.252 1099.91 304.505 1101.02 C 361.563 1104.91 422.047 1072.21 462.538 1034.1 L 482.535 1033.97 C 476.552 1045.23 460.81 1074.66 456.429 1086.16 C 457.464 1086.28 458.095 1086.2 458.456 1086.6 C 458.434 1087.33 456.176 1088.42 456.579 1089.34 C 457.426 1091.27 459.163 1092.07 460.795 1090.39 C 461.292 1090.07 461.789 1089.76 462.287 1089.44 C 463.816 1088.53 463.75 1088.51 465.466 1089.15 z" fill="rgb(215,154,184)" transform="translate(0,0)"></path>
<path d="M 456.429 1086.16 C 457.464 1086.28 458.095 1086.2 458.456 1086.6 C 458.434 1087.33 456.176 1088.42 456.579 1089.34 C 457.426 1091.27 459.163 1092.07 460.795 1090.39 C 461.292 1090.07 461.789 1089.76 462.287 1089.44 C 463.816 1088.53 463.75 1088.51 465.466 1089.15 C 459.923 1097.16 453.382 1104.74 447.862 1112.94 C 446.517 1114.94 432.733 1134.74 431.56 1134.48 C 435.219 1130.1 442.552 1111.19 446.559 1105.65 C 449.526 1101.55 453.022 1089.37 456.429 1086.16 z" fill="rgb(232,223,226)" transform="translate(0,0)"></path>
<path d="M 735.423 1159.37 L 738.336 1156.33 C 745.186 1149.18 749.828 1142.61 756.182 1135.31 C 752.407 1143.25 746.965 1155.23 742.671 1162.7 C 739.703 1161.11 738.747 1160.02 735.423 1159.37 z" fill="rgb(232,223,226)" transform="translate(0,0)"></path>
<path d="M 449.509 1057.1 C 448.203 1059.48 445.285 1065.69 443.85 1067.31 C 442.225 1065.32 442.295 1065.44 440.015 1064.23 C 443.133 1061.63 446.241 1059.52 449.509 1057.1 z" fill="rgb(232,223,226)" transform="translate(0,0)"></path>
<path d="M 686.979 1030.2 C 714.024 1028.41 706.969 1055.86 700.138 1071.93 C 685.922 1105.38 651.018 1158.02 617.282 1172.91 C 591.864 1179.72 602.002 1146.91 606.561 1134.63 C 620.77 1096.35 649.216 1048.67 686.979 1030.2 z" fill="rgb(236,233,228)" transform="translate(0,0)"></path>
<path d="M 1036.32 1030.2 C 1059.69 1028.51 1055.33 1052.77 1049.63 1067.05 C 1035.77 1101.74 1000.82 1156.31 966.349 1172.57 C 959.996 1174.61 951.497 1175.32 949.834 1167.07 C 945.825 1147.16 961.157 1117.2 969.917 1100.54 C 982.417 1076.76 1009.62 1038.3 1036.32 1030.2 z" fill="rgb(236,233,228)" transform="translate(0,0)"></path>
<path d="M 1345.61 1106.46 C 1346.09 1106.58 1346.56 1106.71 1347.04 1106.82 C 1356.34 1109.05 1378.86 1111.47 1387 1105.99 C 1390.32 1103.75 1417.65 1040.72 1422.78 1030.61 C 1451.04 974.953 1515.79 861.344 1568.29 829.726 C 1575.03 825.664 1583.94 819.695 1592.18 822.076 C 1596.52 823.329 1599.87 826.507 1601.77 830.55 C 1608.01 843.856 1601.41 864.42 1596.75 877.366 C 1572.43 944.932 1498.76 1017.16 1434.38 1047.71 C 1426.67 1062.5 1373.49 1155.21 1394.91 1172.04 C 1417.04 1189.44 1449.81 1147.34 1464.13 1129.75 C 1472.47 1118.71 1481.76 1106.78 1488.97 1095.03 C 1499.39 1078.07 1516.34 1041.93 1528.61 1027.69 C 1535.77 1027.05 1546.57 1027.43 1554.01 1027.48 C 1541.02 1055.36 1482.7 1147.08 1486.93 1165.51 C 1499.6 1220.77 1619.95 1031.42 1624.55 1024.99 L 1645.44 1025.04 C 1631.46 1054.6 1614.8 1083.41 1600.76 1112.93 C 1594.16 1126.8 1574.24 1158.39 1580.02 1172.5 C 1597.82 1187 1664.08 1104.97 1680.99 1092.15 C 1718.27 1063.89 1748.49 1052.88 1795.41 1057.64 C 1797.07 1060.71 1798.65 1064.09 1800.18 1067.25 C 1670.73 1045.28 1635.67 1197.09 1573.59 1182.15 C 1557.24 1166.72 1562.8 1151.79 1568.73 1132.71 C 1563.4 1129.75 1566.95 1135.11 1561.05 1129.79 C 1545.64 1146.96 1493.53 1215 1473.99 1168.04 C 1471 1158.24 1472.61 1149.63 1474.22 1139.86 C 1472.83 1135.3 1473.49 1140.08 1469.5 1136.99 C 1450.57 1155.53 1432.05 1190.78 1398.19 1183.05 C 1368.58 1176.29 1380.01 1135.76 1385.67 1115.48 C 1372.07 1118.16 1356 1116.07 1342.07 1114.76 C 1328.73 1136.14 1310.86 1164.68 1288.74 1175.53 C 1228.7 1204.46 1205.56 1153.46 1225.99 1102.95 C 1236.26 1077.58 1255.53 1048.16 1281.1 1036.19 C 1287.58 1036.67 1293.36 1037.95 1299.73 1039.21 C 1292.64 1046.63 1283.01 1053.61 1277.06 1062.89 C 1259.75 1089.92 1236.89 1127.9 1239.4 1161.26 C 1240.53 1176.37 1260.11 1176.72 1271.5 1173.27 C 1300.12 1164.59 1319.09 1136.75 1333.32 1112.17 C 1322.91 1106.93 1313.46 1100.8 1307.05 1090.7 C 1294.21 1070.46 1292.76 1038.97 1315.91 1025.41 C 1329.25 1017.6 1347.67 1019.89 1354.08 1035.45 C 1363.5 1058.28 1353.65 1084.89 1345.61 1106.46 z" fill="rgb(215,154,184)" transform="translate(0,0)"></path>
<path d="M 1582.08 1101.42 C 1578.53 1109.98 1572.95 1124.87 1568.73 1132.71 C 1563.4 1129.75 1566.95 1135.11 1561.05 1129.79 C 1567.25 1120.59 1575.31 1110.42 1582.08 1101.42 z" fill="rgb(232,223,226)" transform="translate(0,0)"></path>
<path d="M 1469.09 1136.37 C 1472.59 1133.1 1475.22 1129.34 1478.3 1125.59 C 1476.9 1130.04 1475.28 1135.15 1474.77 1139.72 L 1474.22 1139.86 C 1472.83 1135.3 1473.49 1140.08 1469.5 1136.99 L 1469.09 1136.37 z" fill="rgb(232,223,226)" transform="translate(0,0)"></path>
<path d="M 1548.49 865.629 C 1555.82 856.464 1580.74 822.586 1593.17 833.525 C 1601.69 841.027 1590.27 872.927 1586.54 881.391 C 1564.64 931.191 1526.65 972.757 1484.37 1006.24 C 1472.45 1015.64 1454.53 1028.78 1441.42 1035.43 C 1451.12 1014.27 1529.11 886.78 1545.15 870.336 C 1546.32 868.593 1547.22 867.31 1548.49 865.629 z" fill="rgb(236,233,228)" transform="translate(0,0)"></path>
<path d="M 1545.15 870.336 C 1546.32 868.593 1547.22 867.31 1548.49 865.629 L 1549.29 867.269 C 1552.87 873.47 1549.56 871.87 1545.15 870.336 z" fill="rgb(232,223,226)" transform="translate(0,0)"></path>
<path d="M 1328.29 1029.26 C 1350.45 1029.09 1351.83 1048.13 1349.2 1066.01 C 1347.95 1074.19 1345.91 1082.24 1343.12 1090.04 C 1339.94 1098.83 1339.76 1105.3 1331.02 1101.44 C 1319.02 1093.16 1309.33 1081.89 1307 1067.01 C 1304.14 1048.76 1309.31 1034.52 1328.29 1029.26 z" fill="rgb(236,233,228)" transform="translate(0,0)"></path>
<path d="M 178.117 1000.63 C 182.577 996.022 185.15 993.124 190.368 989.358 C 200.269 998.288 206.632 1004.59 208.317 1018.35 C 211.154 1020.12 211.992 1022.4 213.651 1025.36 C 228.556 1023.73 233.409 1023.45 248.373 1027.86 C 246.708 1033.64 244.797 1039.98 243.254 1045.72 L 242.792 1047.39 C 254.392 1053.42 259.733 1050.13 250.721 1067.87 C 248.626 1071.99 244.556 1075.04 240.865 1077.72 C 243.016 1079.5 245.388 1081.22 247.03 1083.43 C 239.634 1079.62 235.532 1082.14 227.014 1084.47 C 230.705 1086.3 236.634 1089.02 239.89 1091.21 C 238.047 1091.99 234.308 1093.47 232.682 1094.33 C 236.564 1106.77 236.283 1111.83 234.609 1124.55 L 234.006 1124.51 C 227.429 1124.07 225.167 1123.83 218.842 1122.75 C 217.897 1127.75 217.207 1131.8 215.931 1136.78 L 215.51 1138.48 C 186.014 1135.8 178.025 1124.37 180.113 1097.13 C 180.619 1090.53 179.927 1082.09 180.16 1075.18 L 177.78 1075.29 C 177.164 1108.22 186.609 1133.63 143.504 1138.55 C 142.433 1133.49 141.346 1128.71 140.563 1123.57 C 136.45 1123.82 128.87 1125.05 125.13 1123.89 C 123.77 1123.47 123.104 1118.65 123.022 1117.5 C 121.961 1102.54 124.352 1093.9 134.702 1083.22 C 132.04 1081.07 130.401 1081.26 126.978 1080.9 C 112.631 1077.47 103.11 1070.42 101.338 1054.54 C 105.774 1052.11 110.328 1049.9 114.984 1047.93 C 112.228 1041.55 110.289 1035.57 108.152 1028.95 C 119.501 1025.59 135.255 1022.06 146.413 1027.59 L 148.802 1026.8 C 145.994 1010.4 153.29 998.771 166.481 989.447 C 170.604 993.249 174.156 996.653 178.117 1000.63 z" fill="rgb(164,148,190)" transform="translate(0,0)"></path>
<path d="M 182.798 1071.56 C 200.946 1072.09 223.926 1075.92 232.682 1094.33 C 236.564 1106.77 236.283 1111.83 234.609 1124.55 L 234.006 1124.51 C 227.429 1124.07 225.167 1123.83 218.842 1122.75 C 217.897 1127.75 217.207 1131.8 215.931 1136.78 L 215.51 1138.48 C 186.014 1135.8 178.025 1124.37 180.113 1097.13 C 180.619 1090.53 179.927 1082.09 180.16 1075.18 C 181.508 1073.09 188.837 1081.42 190.313 1082.82 C 193.5 1085.86 196.26 1087.97 199.684 1090.68 C 193.882 1082.12 189.653 1078.95 182.798 1071.56 z" fill="rgb(164,148,190)" transform="translate(0,0)"></path>
<path d="M 134.702 1083.22 C 152.397 1071.83 154.643 1072.8 175.506 1070.66 C 173.651 1072.74 159.089 1088.16 159.555 1089.68 L 159.774 1089.77 C 166.595 1086.94 174.116 1072.42 177.78 1075.29 C 177.164 1108.22 186.609 1133.63 143.504 1138.55 C 142.433 1133.49 141.346 1128.71 140.563 1123.57 C 136.45 1123.82 128.87 1125.05 125.13 1123.89 C 123.77 1123.47 123.104 1118.65 123.022 1117.5 C 121.961 1102.54 124.352 1093.9 134.702 1083.22 z" fill="rgb(164,148,190)" transform="translate(0,0)"></path>
<path d="M 213.651 1025.36 C 228.556 1023.73 233.409 1023.45 248.373 1027.86 C 246.708 1033.64 244.797 1039.98 243.254 1045.72 L 242.792 1047.39 C 254.392 1053.42 259.733 1050.13 250.721 1067.87 C 248.626 1071.99 244.556 1075.04 240.865 1077.72 C 233.915 1078.95 228.962 1082.18 220.568 1077.9 C 216.066 1075.61 210.449 1073.66 206.332 1071.54 C 194.086 1068.76 194.297 1069.02 181.813 1068.83 C 186.301 1065.23 189.66 1062.18 193.777 1058.19 C 202.052 1047.58 206.675 1042.72 209.867 1028.93 C 210.372 1026.75 211.727 1026.36 213.651 1025.36 z" fill="rgb(164,148,190)" transform="translate(0,0)"></path>
<path d="M 108.152 1028.95 C 119.501 1025.59 135.255 1022.06 146.413 1027.59 C 149.248 1042.01 155 1046.15 162.382 1056.91 C 165.553 1059.69 179.127 1068.32 169.56 1068.66 C 168.809 1068.68 168.059 1068.72 167.31 1068.77 C 147.099 1069.53 143.141 1077.57 126.978 1080.9 C 112.631 1077.47 103.11 1070.42 101.338 1054.54 C 105.774 1052.11 110.328 1049.9 114.984 1047.93 C 112.228 1041.55 110.289 1035.57 108.152 1028.95 z" fill="rgb(164,148,190)" transform="translate(0,0)"></path>
<path d="M 208.317 1018.35 C 211.154 1020.12 211.992 1022.4 213.651 1025.36 C 211.727 1026.36 210.372 1026.75 209.867 1028.93 C 206.675 1042.72 202.052 1047.58 193.777 1058.19 C 189.66 1062.18 186.301 1065.23 181.813 1068.83 C 194.297 1069.02 194.086 1068.76 206.332 1071.54 C 210.449 1073.66 216.066 1075.61 220.568 1077.9 C 228.962 1082.18 233.915 1078.95 240.865 1077.72 C 243.016 1079.5 245.388 1081.22 247.03 1083.43 C 239.634 1079.62 235.532 1082.14 227.014 1084.47 C 230.705 1086.3 236.634 1089.02 239.89 1091.21 C 238.047 1091.99 234.308 1093.47 232.682 1094.33 C 223.926 1075.92 200.946 1072.09 182.798 1071.56 C 189.653 1078.95 193.882 1082.12 199.684 1090.68 C 196.26 1087.97 193.5 1085.86 190.313 1082.82 C 188.837 1081.42 181.508 1073.09 180.16 1075.18 L 177.78 1075.29 C 174.116 1072.42 166.595 1086.94 159.774 1089.77 L 159.555 1089.68 C 159.089 1088.16 173.651 1072.74 175.506 1070.66 C 154.643 1072.8 152.397 1071.83 134.702 1083.22 C 132.04 1081.07 130.401 1081.26 126.978 1080.9 C 143.141 1077.57 147.099 1069.53 167.31 1068.77 C 168.059 1068.72 168.809 1068.68 169.56 1068.66 C 179.127 1068.32 165.553 1059.69 162.382 1056.91 C 155 1046.15 149.248 1042.01 146.413 1027.59 L 148.802 1026.8 L 149.314 1028.39 C 155.204 1047.25 162.131 1053.49 176.535 1066.09 C 176.836 1063.44 176.886 1051.03 178.73 1051.22 C 179.135 1051.93 178.62 1057.65 181.158 1056.65 L 181.149 1056.44 C 185.172 1060.08 183.107 1060.54 187.328 1057.35 L 187.344 1057.36 C 186.809 1058.14 186.474 1060.04 187.464 1060.65 C 199.637 1052.32 206.991 1032.54 208.317 1018.35 z" fill="rgb(232,223,226)" transform="translate(0,0)"></path>
<path d="M 1842.34 1025.33 C 1841.64 1010.25 1846.54 999.903 1858.53 990.309 L 1859.87 989.201 C 1864.82 993.451 1867.29 995.992 1871.92 1000.61 C 1875.77 996.732 1879.26 993.234 1883.33 989.562 C 1895.95 998.066 1899.47 1004.43 1902.54 1019.22 C 1903.14 1022.94 1901.86 1024.38 1903.62 1027.52 C 1916.8 1022.43 1929.6 1024.71 1942.71 1028.8 C 1940.25 1035.24 1938.01 1041.78 1935.38 1048.16 C 1939.78 1050.25 1944.6 1052.3 1949.13 1054.39 C 1943.57 1073.32 1937.22 1082.32 1916.18 1079.6 L 1915.42 1082.96 C 1922.5 1089.67 1922.07 1090.96 1926.24 1099.28 C 1927.83 1106.56 1928.35 1111.58 1927.44 1119.01 C 1926.52 1126.49 1925.69 1124.9 1917.95 1124.02 C 1906.25 1122.35 1910.66 1125.98 1907.38 1138.77 C 1888.98 1135.53 1876.72 1132.51 1872.7 1112.13 C 1871.95 1112.67 1871.17 1113.21 1870.44 1113.77 C 1867.36 1126.53 1854.41 1139.81 1836.01 1137.74 C 1834.57 1137.58 1833.2 1125.75 1832.68 1122.89 C 1826.46 1123.67 1822.73 1124.04 1816.36 1124.38 C 1814.13 1106.9 1814.76 1095.28 1828.12 1082.5 C 1826.87 1082.74 1816.96 1083.11 1816.22 1082.73 L 1816.17 1082.5 C 1817.81 1080.77 1823.14 1081.08 1823.45 1080.53 L 1823.3 1080.39 L 1822.83 1080.62 L 1821.92 1080.03 C 1820.98 1079.93 1820.22 1079.8 1819.26 1079.6 C 1811.35 1077.88 1803.82 1075.15 1800.18 1067.25 C 1798.65 1064.09 1797.07 1060.71 1795.41 1057.64 C 1795.91 1050.57 1802.5 1049.91 1808.8 1046.94 C 1806.48 1040.86 1804.18 1034.47 1802.21 1028.27 C 1815.44 1024.54 1826.5 1022.81 1839.85 1026.92 C 1840.94 1026.31 1841.31 1026.07 1842.34 1025.33 z" fill="rgb(164,148,190)" transform="translate(0,0)"></path>
<path d="M 1828.12 1082.5 C 1842.38 1071.77 1851.65 1071.9 1868.67 1071.08 C 1865.74 1074.22 1863.71 1076.71 1860.17 1079.16 L 1858.81 1080.56 C 1857.46 1082.67 1851.46 1087.94 1851.83 1089.35 C 1853.44 1090.28 1861.17 1082.28 1862.8 1080.74 L 1862.94 1080.62 C 1863.79 1079.77 1864.62 1078.91 1865.45 1078.04 C 1866.13 1077.34 1867.55 1075.56 1868.63 1075.33 C 1869.02 1075.46 1868.78 1075.33 1869.39 1075.83 C 1870.24 1084.78 1869.25 1108.19 1870.44 1113.77 C 1867.36 1126.53 1854.41 1139.81 1836.01 1137.74 C 1834.57 1137.58 1833.2 1125.75 1832.68 1122.89 C 1826.46 1123.67 1822.73 1124.04 1816.36 1124.38 C 1814.13 1106.9 1814.76 1095.28 1828.12 1082.5 z" fill="rgb(164,148,190)" transform="translate(0,0)"></path>
<path d="M 1874.93 1071.47 C 1894.62 1072.49 1898.52 1072.66 1915.42 1082.96 C 1922.5 1089.67 1922.07 1090.96 1926.24 1099.28 C 1927.83 1106.56 1928.35 1111.58 1927.44 1119.01 C 1926.52 1126.49 1925.69 1124.9 1917.95 1124.02 C 1906.25 1122.35 1910.66 1125.98 1907.38 1138.77 C 1888.98 1135.53 1876.72 1132.51 1872.7 1112.13 L 1872.2 1072.92 C 1879.8 1080.09 1885.37 1085.98 1893.57 1092.56 C 1885.57 1081.48 1884.48 1081.14 1874.93 1071.47 z" fill="rgb(164,148,190)" transform="translate(0,0)"></path>
<path d="M 1903.62 1027.52 C 1916.8 1022.43 1929.6 1024.71 1942.71 1028.8 C 1940.25 1035.24 1938.01 1041.78 1935.38 1048.16 C 1939.78 1050.25 1944.6 1052.3 1949.13 1054.39 C 1943.57 1073.32 1937.22 1082.32 1916.18 1079.6 C 1907.62 1074.89 1904.01 1073.64 1895.02 1070.48 C 1886.69 1069.34 1882.85 1069.09 1874.48 1068.63 C 1880 1064.1 1883.81 1061.37 1888.81 1056.1 C 1894.32 1050.05 1903.88 1035.75 1903.62 1027.52 z" fill="rgb(164,148,190)" transform="translate(0,0)"></path>
<path d="M 1802.21 1028.27 C 1815.44 1024.54 1826.5 1022.81 1839.85 1026.92 C 1843.42 1040.15 1848.71 1049.44 1858.2 1059.11 C 1859.93 1060.65 1870.8 1068.21 1864.12 1068.35 C 1858.54 1068.89 1852.85 1068.78 1847.5 1070.11 C 1834.19 1073.41 1833.13 1078.16 1819.26 1079.6 C 1811.35 1077.88 1803.82 1075.15 1800.18 1067.25 C 1798.65 1064.09 1797.07 1060.71 1795.41 1057.64 C 1795.91 1050.57 1802.5 1049.91 1808.8 1046.94 C 1806.48 1040.86 1804.18 1034.47 1802.21 1028.27 z" fill="rgb(164,148,190)" transform="translate(0,0)"></path>
<path d="M 1902.54 1019.22 C 1903.14 1022.94 1901.86 1024.38 1903.62 1027.52 C 1903.88 1035.75 1894.32 1050.05 1888.81 1056.1 C 1883.81 1061.37 1880 1064.1 1874.48 1068.63 C 1882.85 1069.09 1886.69 1069.34 1895.02 1070.48 C 1904.01 1073.64 1907.62 1074.89 1916.18 1079.6 L 1915.42 1082.96 C 1898.52 1072.66 1894.62 1072.49 1874.93 1071.47 C 1884.48 1081.14 1885.57 1081.48 1893.57 1092.56 C 1885.37 1085.98 1879.8 1080.09 1872.2 1072.92 L 1872.7 1112.13 C 1871.95 1112.67 1871.17 1113.21 1870.44 1113.77 C 1869.25 1108.19 1870.24 1084.78 1869.39 1075.83 C 1868.78 1075.33 1869.02 1075.46 1868.63 1075.33 C 1867.55 1075.56 1866.13 1077.34 1865.45 1078.04 C 1864.62 1078.91 1863.79 1079.77 1862.94 1080.62 L 1862.8 1080.74 C 1861.17 1082.28 1853.44 1090.28 1851.83 1089.35 C 1851.46 1087.94 1857.46 1082.67 1858.81 1080.56 L 1860.17 1079.16 C 1863.71 1076.71 1865.74 1074.22 1868.67 1071.08 C 1851.65 1071.9 1842.38 1071.77 1828.12 1082.5 C 1826.87 1082.74 1816.96 1083.11 1816.22 1082.73 L 1816.17 1082.5 C 1817.81 1080.77 1823.14 1081.08 1823.45 1080.53 L 1823.3 1080.39 L 1822.83 1080.62 L 1821.92 1080.03 C 1820.98 1079.93 1820.22 1079.8 1819.26 1079.6 C 1833.13 1078.16 1834.19 1073.41 1847.5 1070.11 C 1852.85 1068.78 1858.54 1068.89 1864.12 1068.35 C 1870.8 1068.21 1859.93 1060.65 1858.2 1059.11 C 1848.71 1049.44 1843.42 1040.15 1839.85 1026.92 C 1840.94 1026.31 1841.31 1026.07 1842.34 1025.33 C 1842.53 1025.75 1842.72 1026.17 1842.91 1026.59 C 1847.47 1045.92 1856.34 1053.64 1869.92 1066.24 C 1870.36 1045.44 1873.27 1045 1872.98 1066.48 C 1891.93 1051.7 1898.4 1043.22 1902.54 1019.22 z" fill="rgb(232,223,226)" transform="translate(0,0)"></path>
<path d="M 626.992 821.381 C 648.321 824.453 641.134 858.408 635.684 871.742 C 611.573 930.732 540.948 1001.31 483.809 1027.79 L 466.803 1028 C 489.65 977.313 567.69 829.905 626.992 821.381 z" fill="rgb(215,154,184)" transform="translate(0,0)"></path>
<path d="M 621.188 831.015 C 625.018 830.709 629.236 830.433 631.273 834.093 C 634.179 839.316 632.719 852.446 631.136 857.968 C 614.826 914.827 551.718 976.377 503.286 1007.1 L 493.86 1013.17 C 515.694 972.464 583.201 851.093 621.188 831.015 z" fill="rgb(236,233,228)" transform="translate(0,0)"></path>
<path d="M 1157.49 1063.54 C 1172.02 1061.18 1185.79 1070.85 1188.5 1085.33 C 1191.22 1099.8 1181.89 1113.8 1167.48 1116.86 C 1157.85 1118.91 1147.86 1115.58 1141.38 1108.16 C 1134.91 1100.73 1132.97 1090.38 1136.31 1081.11 C 1139.66 1071.85 1147.76 1065.12 1157.49 1063.54 z" fill="rgb(164,148,190)" transform="translate(0,0)"></path>
<path d="M 255.507 1098.03 C 258.091 1099.37 259.667 1100.06 262.355 1101.11 C 261.381 1101.72 255.954 1104.08 256.051 1104 C 251.57 1107.62 248.003 1103.35 250.899 1099.26 C 251.121 1098.95 254.129 1098.77 255.161 1098.44 L 255.507 1098.03 z" fill="rgb(236,233,228)" transform="translate(0,0)"></path>
<path d="M 1242.63 1143.2 C 1247.96 1145.6 1246.9 1147.02 1245.73 1152.82 C 1239.9 1150.45 1241.12 1149.58 1242.63 1143.2 z" fill="rgb(232,223,226)" transform="translate(0,0)"></path>
<metadata><recraft-signature>{"signed_by": "recraft", "signature_b64": "lndOT3t0fSKQOcWz0kShn7lyjV3SjluygOjkMRfrADZgX7Kc6J74X1q6pKm/YdSr9nEQzOjknwbCO23PbyS4Bg==", "signing_algo": "Ed25519", "generation_timestamp": 1779499919, "identifier": "7b284982-74b9-4521-b83f-17bc104eef82"}</recraft-signature></metadata></svg>