<svg xmlns="http://www.w3.org/2000/svg" viewBox="0 0 1000 1000" preserveAspectRatio="xMidYMid slice" role="img" aria-label="Loam — concept brand vignette with official wordmark">
  <!-- canvas: slow-living artisan food, warm olive / terracotta -->
  <defs>
    <radialGradient id="lm-bg" cx="50%" cy="55%" r="80%">
      <stop offset="0%" stop-color="#EDE7CF"/>
      <stop offset="100%" stop-color="#DDD5B4"/>
    </radialGradient>
  </defs>
  <rect width="1000" height="1000" fill="url(#lm-bg)"/>

  <!-- speckled grain noise — paper texture hint -->
  <g fill="#A88E5E" opacity="0.18">
    <circle cx="120" cy="180" r="1.5"/>
    <circle cx="660" cy="220" r="1"/>
    <circle cx="240" cy="280" r="1.2"/>
    <circle cx="540" cy="100" r="1"/>
    <circle cx="100" cy="780" r="1.2"/>
    <circle cx="700" cy="860" r="1.5"/>
    <circle cx="380" cy="930" r="1"/>
    <circle cx="180" cy="500" r="1.4"/>
    <circle cx="640" cy="640" r="1.2"/>
    <circle cx="320" cy="180" r="1"/>
    <circle cx="470" cy="820" r="1"/>
  </g>

  <!-- official Loam wordmark (leaf-from-L, seed-in-o) — scaled from 2048 source -->
  <g transform="translate(-38.62,-53) scale(0.553)">
    <path d="M 846.474 964.371 C 875.107 964.006 902.575 976.97 923.305 996.198 C 952.584 1023.35 969.826 1061.06 971.213 1100.96 C 972.271 1140.34 957.65 1178.53 930.563 1207.14 C 906.611 1232.24 874.836 1249.27 839.758 1250.22 C 714.485 1246.26 670.907 1067.23 769.036 996.472 C 796.434 976.716 812.406 967.374 846.474 964.371 z" fill="rgb(150,64,49)"/>
    <path d="M 822.585 981.248 C 833.334 980.326 840.142 980.618 850.127 986.236 C 879.57 1002.8 898.774 1047.36 907.798 1077.82 C 919.203 1116.32 922.216 1166.41 901.711 1202.39 C 892.094 1219.26 881.17 1230.43 862.248 1235.94 C 853.44 1237.85 844.726 1236.69 836.601 1232.66 C 764.857 1197.04 735.31 1009.84 822.585 981.248 z" fill="#E8E2C9"/>
    <path d="M 752.521 966.629 C 754.782 968.942 761.25 986.433 764.544 991.517 C 774.166 1006.37 784.525 1021.3 789.737 1038.35 C 798.001 1065.39 782.206 1083.79 769.991 1106.01 L 765.828 1100.45 C 749.98 1079.84 726.671 1064.53 720.322 1038.2 C 713.735 1010.88 738.344 989.275 752.521 966.629 z" fill="rgb(150,64,49)" transform="translate(843 1109) scale(1.2) translate(-755.6 -1036.3)"/>
    <path d="M 1411.18 964.419 C 1420.91 964.336 1430.56 966.243 1439.53 970.022 C 1466.7 981.734 1480.06 1007.96 1482 1036.53 C 1482.41 1042.62 1481.62 1055.77 1483.54 1060.65 C 1485.57 1059.65 1487.04 1057.76 1488.02 1055.74 C 1505.16 1019.04 1539.25 967.488 1584.45 964.973 C 1664.58 960.514 1665.63 1041.37 1659.19 1098.98 C 1655.66 1130.59 1658.69 1165.17 1664.29 1195.71 C 1665.95 1204.76 1671.14 1216.41 1677.18 1223 C 1682.51 1229.05 1697.48 1234.86 1697.65 1243.11 C 1693.38 1248.72 1671.38 1247.74 1664.4 1247.16 C 1651.57 1246.1 1602.11 1250.34 1593.41 1244 C 1590.46 1234.27 1604.73 1229.79 1610.66 1221.8 C 1630.22 1195.94 1626.31 1161.65 1626.62 1131.18 C 1626.94 1098.52 1624.82 1066.01 1608.67 1036.72 C 1601.29 1023.34 1586.85 1009.2 1571.58 1005.93 C 1527.67 996.523 1497.91 1049.04 1490.59 1084.99 C 1482.47 1123.99 1479.44 1156.71 1487.03 1195.72 C 1493.01 1226.49 1508.61 1222.03 1520.03 1240.74 C 1520.52 1250.51 1491.28 1247.27 1484.3 1247.12 C 1472.33 1247.1 1423.6 1249.24 1415.91 1244.97 C 1415.23 1243.96 1413.4 1241.73 1414.38 1240.25 C 1420.56 1230.89 1433.47 1221.15 1438.61 1210.86 C 1448.35 1191.4 1449.69 1159.02 1450.22 1137.12 C 1451.07 1102.4 1444.56 1047.03 1420.14 1020.33 C 1409.88 1010.47 1392.6 1003.16 1378.5 1004.39 C 1308.22 1010.55 1298.41 1109.91 1300.19 1164.32 C 1301.14 1193.42 1306.82 1216.94 1332.41 1233.28 C 1335.65 1235.35 1337.57 1239.28 1337.66 1242.98 C 1331.75 1251.62 1257.07 1244.84 1243.74 1247.32 C 1239.25 1248.15 1232.9 1246.1 1232.03 1240.15 C 1234.32 1232.9 1241.78 1229.75 1247.42 1224.82 C 1260.72 1213.21 1265.73 1189.67 1267.25 1172.97 C 1270.37 1136.79 1269.29 1098.25 1260.09 1062.99 C 1258.24 1055.93 1257.53 1053.17 1253.1 1047.35 C 1246.62 1038.84 1233.6 1033.22 1229.27 1024.05 C 1229.76 1019.48 1237.5 1017.41 1242.53 1015.07 C 1258.56 1008.02 1271.08 999.305 1281.77 985.278 C 1286.27 979.371 1294.42 966.328 1301.84 966.327 C 1315.44 974.645 1298.14 1039.4 1304.36 1050.55 C 1306.33 1050.31 1306.92 1050.2 1307.99 1048.02 C 1329.66 1003.68 1359.31 967.36 1411.18 964.419 z" fill="rgb(150,64,49)"/>
    <path d="M 1042.15 1075.86 C 1034.21 1082.78 1028.49 1088.05 1017.22 1087.22 C 997.637 1085.78 993.253 1061.94 995.665 1046.39 C 999.167 1023.81 1013.44 1003.89 1031.4 990.355 C 1048.31 977.512 1069.17 972.074 1089.92 969.554 C 1101.72 968.121 1113.75 968.002 1125.51 969.89 C 1145.92 972.997 1164.22 984.201 1176.28 1000.97 C 1207.33 1044.09 1190.89 1123.65 1195.91 1175.05 C 1196.78 1183.96 1195.61 1193.95 1199.8 1202.04 C 1205.41 1214.47 1222.31 1210.72 1228.89 1215.59 C 1231.06 1231.96 1205.42 1249.43 1190.46 1251.37 C 1179.91 1252.75 1169.26 1249.81 1160.92 1243.2 C 1141.19 1227.39 1141.32 1199.79 1140.42 1176.8 L 1137.47 1172.71 C 1127.5 1193.71 1121.88 1200.69 1106.13 1218.92 C 1066.43 1264.87 977.755 1263.4 975.689 1189.38 C 974.673 1152.98 1006.91 1129.49 1034.78 1110.01 C 1069.14 1085.98 1108.4 1064.26 1139.38 1034.37 C 1137.21 1013.3 1126.13 989.264 1103.36 984.5 C 1094.9 982.64 1086.04 984.321 1078.84 989.155 C 1055.91 1004.29 1053.97 1038.37 1049.14 1062.56 C 1049.63 1070.62 1051.68 1073.13 1043.33 1075.51 L 1042.15 1075.86 z" fill="rgb(150,64,49)"/>
    <path d="M 1042.15 1075.86 C 1044.95 1071.06 1046.82 1067.61 1049.14 1062.56 C 1049.63 1070.62 1051.68 1073.13 1043.33 1075.51 L 1042.15 1075.86 z" fill="#E8E2C9"/>
    <path d="M 1137.47 1172.71 C 1137.77 1171.61 1138.29 1169.1 1139.5 1168.64 C 1140.69 1169.27 1140.4 1175.49 1140.42 1176.8 L 1137.47 1172.71 z" fill="#DFD9BB"/>
    <path d="M 1138.68 1052.85 C 1141.53 1055.7 1139.2 1112.19 1140.26 1120.85 C 1145.16 1160.96 1088.45 1234.6 1044.65 1203.12 C 1017.43 1175.66 1045.26 1127.33 1070.22 1108.6 C 1079.9 1101.34 1089.44 1093.49 1098.95 1085.99 C 1112.46 1075.27 1125.71 1064.22 1138.68 1052.85 z" fill="#E8E2C9"/>
    <path d="M 604.971 743.713 C 605.284 744.03 605.62 744.325 605.908 744.665 C 613.21 753.268 617.601 766.578 620.095 777.393 C 635.787 845.443 568.026 881.982 544.426 936.97 C 525.676 980.659 521.683 1037.01 520.216 1084.16 C 519.362 1111.63 517.963 1203.93 537.022 1223.12 C 546.642 1232.81 562.377 1234.4 575.385 1234.43 C 614.174 1234.51 663.919 1215.19 676.854 1175.02 C 679.386 1167.16 679.179 1149.51 684.663 1144.05 C 693 1141.48 699.804 1159.08 702.61 1165.53 C 711.398 1185.75 725.198 1217.06 713.455 1238.09 C 699.89 1251.07 672.963 1247.18 654.848 1247.03 C 634.247 1246.9 613.645 1246.9 593.044 1247.03 L 494.511 1247.04 C 482.701 1247.08 435.694 1249.73 427.953 1243.47 C 428.299 1238.66 447.098 1224.17 451.805 1219.61 C 456.216 1215.32 460.352 1210.75 464.188 1205.94 C 501.442 1159.49 508.731 1074.32 505.336 1015.65 C 502.333 963.766 484.099 915.099 502.56 862.642 C 515.663 825.409 535.819 813.167 571.646 800.314 C 590.841 793.274 598.958 762.187 604.971 743.713 z" fill="rgb(150,64,49)"/>
    <path d="M 251.029 743.383 C 252.146 745.529 254.63 749.971 255.34 752.036 C 278.788 786.234 298.866 798.127 340.502 806.692 C 388.19 816.502 430.767 805.762 462.242 851.747 C 479.599 877.103 478.978 901.645 475.331 930.591 C 458.066 901.092 427.004 871.826 392.379 865.163 C 390.494 864.955 376.895 863.452 375.668 864.511 C 376.158 866.553 376.49 866.595 376.338 868.69 C 429.257 895.128 458.821 902.109 478.481 963.375 C 482.724 976.598 488.088 994.686 488.076 1008.88 C 487.336 1015.2 488.846 1017.86 482.21 1019.19 C 467.44 978.223 442.029 938.188 395.513 932.835 C 356.405 928.334 338.092 932.35 305.851 902.532 C 278.391 877.137 252.476 817.23 251.931 780.532 C 250.245 771.548 250.775 752.894 251.029 743.383 z" fill="rgb(150,64,49)"/>
    <path d="M 347.328 853.624 C 362.623 856.29 377.686 860.148 392.379 865.163 C 390.494 864.955 376.895 863.452 375.668 864.511 C 376.158 866.553 376.49 866.595 376.338 868.69 C 367.988 864.746 355.814 858.085 347.328 853.624 z" fill="#DFD9BB"/>
    <path d="M 251.029 743.383 C 252.146 745.529 254.63 749.971 255.34 752.036 C 248.802 755.768 252.691 772.689 251.931 780.532 C 250.245 771.548 250.775 752.894 251.029 743.383 z" fill="rgb(143,75,61)"/>
    <path d="M 488.076 1008.88 C 489.841 1018.12 489.284 1029.5 488.707 1038.9 C 486.481 1032.35 484.315 1025.78 482.21 1019.19 C 488.846 1017.86 487.336 1015.2 488.076 1008.88 z" fill="rgb(143,75,61)"/>
  </g>
</svg>
