<svg xmlns="http://www.w3.org/2000/svg" viewBox="0 0 1000 1000" preserveAspectRatio="xMidYMid slice" role="img" aria-label="Pua Aloha — Hawaiian floral studio brand vignette">
  <!-- canvas: cream paper, coral + forest accents (Pua Aloha brand palette) -->
  <defs>
    <radialGradient id="pa-bg" cx="50%" cy="48%" r="78%">
      <stop offset="0%" stop-color="#FBF4E6"/>
      <stop offset="100%" stop-color="#F2E8D0"/>
    </radialGradient>
  </defs>
  <rect width="1000" height="1000" fill="url(#pa-bg)"/>

  <!-- official Pua Aloha sprig + italic wordmark + FLORAL STUDIO subhead — scaled from 2048 source -->
  <g transform="translate(-57.86,-24.44) scale(0.548)">
      <path d="M 361.453 998.912 C 383.124 999.564 404.801 999.943 426.481 1000.05 C 444.105 1000.07 467.632 998.621 484.568 1001.98 C 539.264 1013.18 529.046 1076.17 499.312 1107.01 C 469.663 1137.78 432.486 1144.86 391.697 1146.25 C 384.499 1170.86 377.438 1195.51 370.514 1220.2 C 364.19 1250.58 385.751 1239.67 400.513 1245.22 L 401.239 1247 L 399.964 1249.36 C 394.991 1250 293.162 1249.32 289.51 1248.43 C 289.66 1241.49 310.899 1244.89 316.381 1230.63 C 324.096 1210.55 329.781 1187.91 336.071 1167.28 L 363.906 1074.64 C 368.788 1058.27 373.895 1041.63 378.361 1025.14 C 379.309 1021.64 379.644 1016.97 378.184 1013.52 C 375.789 1007.85 367.286 1006.9 361.452 1004.95 C 359.894 1002.26 360.436 1003.03 361.453 998.912 z" fill="rgb(38,77,46)"/>
      <path d="M 439.391 1006.21 C 444.132 1006.22 453.323 1006.22 457.636 1007.56 C 484.045 1015.73 473.467 1057.17 468.204 1074.82 C 459.801 1103 450.252 1121.4 424.569 1135.21 C 413.523 1139.62 404.805 1140.44 393.115 1141.07 C 406.76 1100.62 416.101 1057.14 430.61 1016.82 C 432.502 1011.56 434.485 1008.78 439.391 1006.21 z" fill="rgb(251,244,230)"/>
      <path d="M 1322.68 1060.29 C 1352.69 1058.19 1380.22 1068.4 1382.78 1102.3 C 1387.33 1162.46 1353.17 1246.72 1286.16 1255.06 C 1257.46 1257.87 1226.96 1250.38 1223.75 1216.84 C 1217.55 1152.34 1253.24 1071.28 1322.68 1060.29 z" fill="rgb(38,77,46)"/>
      <path d="M 1326.27 1066.94 C 1333.96 1066.08 1338.74 1068.57 1340.02 1076.3 C 1346.79 1117.04 1317.63 1230.7 1280 1249.04 C 1268.57 1250.15 1264.85 1245.63 1264.74 1233.78 C 1264.34 1191.28 1286.91 1086.26 1326.27 1066.94 z" fill="rgb(251,244,230)"/>
      <path d="M 1380.17 1249.63 C 1396.15 1204.17 1410.24 1151.85 1424.36 1105.23 C 1432.7 1078 1440.82 1050.69 1448.71 1023.32 C 1451.56 1013.56 1455.44 1002.1 1458.12 992.387 C 1463.79 971.745 1444.81 979.394 1441.46 970.722 L 1442.98 967.67 C 1445.99 966.585 1451.21 966.496 1454.49 966.505 C 1475.95 966.566 1494.19 959.979 1514.51 956.232 C 1506.29 981.717 1498.81 1008.5 1490.98 1034.24 C 1480.59 1067.61 1470.41 1101.06 1460.45 1134.57 L 1462.35 1135.28 C 1471.69 1112.11 1486.43 1083.82 1507.22 1069.09 C 1517.66 1061.69 1531.69 1057.15 1544.5 1059.68 C 1550.63 1060.89 1556.25 1064.02 1559.65 1069.39 C 1576.11 1095.34 1529.75 1187.79 1522.1 1219.47 C 1520.84 1224.72 1520.03 1230.02 1522.99 1234.79 C 1526.47 1236.97 1524.65 1236.5 1528.55 1236.5 C 1539.91 1231.29 1546.87 1205.2 1551.98 1194 L 1554.27 1193.16 L 1556.49 1194.33 C 1557.89 1200.16 1552.32 1210.9 1549.88 1216.42 C 1543.53 1230.8 1533.95 1247.69 1518.26 1253.28 C 1509.84 1256.29 1498.3 1257.61 1489.98 1253.59 C 1479.88 1248.7 1476.31 1236.36 1476.63 1225.94 C 1477.47 1199.1 1524.62 1094.59 1518.23 1081.05 C 1517 1078.46 1516.22 1078.39 1513.69 1077.44 C 1511.74 1077.79 1509.03 1078.38 1507.5 1079.63 C 1468.48 1111.67 1438.77 1203.82 1427.33 1249.76 C 1411.61 1249.85 1395.89 1249.8 1380.17 1249.63 z" fill="rgb(38,77,46)"/>
      <path d="M 1456.43 1147.07 C 1457.59 1143.08 1458.78 1138.28 1460.45 1134.57 L 1462.35 1135.28 C 1460.84 1138.83 1458.52 1143.92 1456.43 1147.07 z" fill="rgb(155,170,154)"/>
      <path d="M 1700.6 1070.44 C 1722.55 1068.98 1727.46 1067.68 1748.24 1059.77 C 1744.44 1074.75 1739.01 1090.74 1734.46 1105.66 L 1713.33 1175.5 C 1709.47 1188.06 1696.36 1224.3 1699.5 1235.21 C 1702.34 1237.6 1700.75 1236.95 1704.46 1237.2 C 1716.56 1231.12 1722.58 1205.73 1729.24 1194.93 C 1729.74 1194.12 1731.66 1194.41 1732.95 1194.4 C 1734.72 1200.29 1721.09 1225.92 1718.14 1232.98 C 1710.63 1250.99 1682.51 1261.2 1665.02 1252.64 C 1646.69 1243.67 1658.42 1207.56 1664.39 1192.54 L 1662.95 1190.51 C 1655.48 1206.88 1650.52 1213.82 1640.7 1229.66 C 1626.44 1252.65 1587.67 1270.74 1574.9 1237.61 C 1564.47 1210.55 1581.32 1162.97 1592.87 1138.49 C 1607.7 1108.3 1633.12 1074.85 1665.82 1063.47 C 1678.34 1059.11 1693.07 1057.4 1700.6 1070.44 z" fill="rgb(38,77,46)"/>
      <path d="M 1668.48 1178.72 C 1667.17 1183.49 1666.42 1186.9 1664.7 1191.67 L 1664.39 1192.54 L 1662.95 1190.51 C 1664.22 1186.13 1666.4 1182.76 1668.48 1178.72 z" fill="rgb(155,170,154)"/>
      <path d="M 1686.52 1066.78 C 1689.02 1067.19 1692.73 1068.19 1693.36 1070.91 C 1696.96 1086.8 1686.8 1118.57 1680.72 1134.04 C 1671.01 1158.77 1650.46 1218.32 1626.46 1230.07 C 1616 1227.46 1615.79 1218.24 1616.57 1208.98 C 1619.93 1169.33 1649.42 1083.53 1686.52 1066.78 z" fill="rgb(251,244,230)"/>
      <path d="M 772.926 1191.45 C 761.23 1216.48 736.231 1268.42 698.452 1252.77 C 691.673 1249.97 686.791 1242.14 684.918 1235.42 C 677.172 1201.89 692.592 1158 708.082 1128.39 C 720.993 1103.71 750.26 1071.82 777.112 1062.69 C 790.175 1058.24 802.593 1058.62 811.32 1070.38 C 835.699 1069.23 836.17 1067.19 858.359 1059.87 C 851.374 1087.13 808.352 1215.09 809.153 1233.97 C 811.265 1237.29 809.882 1236.11 813.37 1237.71 C 827.578 1235.25 833.71 1200.39 840.313 1193.36 L 843.05 1193.15 L 840.143 1193.53 L 843.558 1193.89 C 845.527 1201.2 833.514 1221.83 830.455 1229.32 C 820.58 1253.5 775.288 1269.96 765.829 1237.82 C 762.836 1227.47 769.732 1204.35 774.432 1193.54 L 772.926 1191.45 z" fill="rgb(38,77,46)"/>
      <path d="M 778.416 1179.56 C 777.372 1184.26 775.886 1188.96 774.432 1193.54 L 772.926 1191.45 C 774.033 1187.97 776.763 1183.02 778.416 1179.56 z" fill="rgb(155,170,154)"/>
      <path d="M 797.722 1068 C 798.889 1068.27 801.233 1069.12 802.476 1069.53 C 803.929 1071.2 804.476 1071.42 804.895 1073.71 C 809.567 1099.23 767.933 1195.43 751.713 1218.04 C 746.661 1225.08 743.172 1228.51 734.476 1229.94 C 709.267 1217.48 757.123 1080.18 797.722 1068 z" fill="rgb(251,244,230)"/>
      <path d="M 601.58 1173.36 C 590.123 1200.44 560.79 1267.27 515.446 1253.79 C 510.754 1252.39 506.469 1246.18 505.109 1242.03 C 493.546 1216.89 553.88 1095.92 543.591 1080.96 C 530.546 1074.47 520.48 1110.14 515.443 1117.31 C 514.523 1117.56 513.603 1117.81 512.684 1118.06 L 510.648 1117.29 C 513.492 1102.46 528.385 1073.88 541.76 1064.8 C 548.244 1060.4 563.232 1057.43 570.922 1059.7 C 596.157 1067.16 586.031 1099.73 580.99 1116.85 C 575.113 1136.95 568.688 1156.89 561.721 1176.64 C 556.678 1190.97 550.946 1205.57 547.27 1220.28 C 545.803 1226.14 545.657 1230.9 551.413 1233.77 C 555.831 1233.75 559.509 1231.23 562.246 1228.01 C 595.771 1188.64 621.702 1115.05 633.733 1065.96 C 653.205 1066.29 662.474 1065.23 681.793 1062.47 C 671.946 1095.88 661.897 1129.23 651.646 1162.51 C 648.087 1174 629.98 1225.48 632.507 1234.15 C 636.015 1236.53 634.139 1235.88 638.334 1236.22 C 652.539 1230.35 656.391 1199.79 664.523 1191.99 L 666.641 1193.32 C 667.178 1204.66 660.404 1214.09 656.118 1224.12 C 645.623 1248.68 619.191 1265.93 593.602 1249.61 C 585.232 1235.47 589.374 1223.75 592.744 1208.24 C 594.113 1201.93 600.731 1180.25 603.353 1175.25 L 601.58 1173.36 z" fill="rgb(38,77,46)"/>
      <path d="M 608.545 1158.09 C 606.858 1164.9 605.47 1168.73 603.353 1175.25 L 601.58 1173.36 C 603.92 1168.08 605.987 1163.32 608.545 1158.09 z" fill="rgb(155,170,154)"/>
      <path d="M 977.418 1153.82 C 968.865 1165.2 959.841 1179.59 952.464 1191.4 C 945.885 1201.92 926.836 1228.58 941.878 1238.03 C 946.469 1240.91 955.416 1242.44 958.305 1245.96 C 957.808 1248.74 958.532 1247.68 956.52 1249.44 C 949.738 1249.64 892.731 1248.99 890.979 1248.09 C 891.068 1242.21 914.216 1232.02 920.06 1225.27 C 941.109 1200.99 957.429 1173.39 975.123 1146.65 L 1069.02 1005.38 C 1073.48 998.772 1076.39 991.984 1084.31 992.02 L 1086.83 993.652 C 1088.67 1006.47 1088.95 1048.8 1089.21 1063.44 L 1092.16 1187.37 C 1092.62 1201.74 1092.8 1216.36 1093.54 1230.71 C 1094.3 1245.26 1106.54 1239.93 1109.91 1246.8 C 1109.4 1247.79 1109.16 1249.11 1107.98 1249.05 C 1097.41 1248.45 1021.04 1250.24 1018.5 1248.72 L 1018.63 1245.32 C 1020.49 1243.78 1019.46 1244.15 1021.36 1243.97 C 1027.52 1243.38 1033.81 1241.9 1037.73 1236.65 C 1044.9 1227.06 1041.26 1168.93 1041.31 1153.7 C 1019.92 1153.36 998.645 1153.95 977.418 1153.82 z" fill="rgb(38,77,46)"/>
      <path d="M 980.244 1147.8 C 986.526 1140.11 991.573 1131.65 996.921 1123.31 C 1011.05 1101.27 1026.37 1080.19 1040.28 1058.01 C 1041.48 1088.27 1040.24 1118.51 1041.18 1148.09 L 1041.31 1153.7 C 1019.92 1153.36 998.645 1153.95 977.418 1153.82 C 979.32 1151.38 979.371 1150.82 980.244 1147.8 z" fill="rgb(251,244,230)"/>
      <path d="M 977.418 1153.82 C 979.32 1151.38 979.371 1150.82 980.244 1147.8 C 995.034 1148.84 1025.76 1148.21 1041.18 1148.09 L 1041.31 1153.7 C 1019.92 1153.36 998.645 1153.95 977.418 1153.82 z" fill="rgb(89,110,88)"/>
      <path d="M 1250.32 956.061 C 1251.22 956.368 1250.58 956.091 1251.88 957.438 C 1245.04 984.128 1234.99 1014.74 1226.89 1041.45 L 1192.32 1157.01 C 1189.94 1164.88 1166.82 1231.14 1173.54 1236.03 C 1184.88 1244.28 1197.12 1203.69 1203.38 1194.5 C 1205.84 1193.5 1204.58 1193.49 1207.22 1194.25 C 1204.88 1209.18 1192.49 1235.25 1181.15 1246.54 C 1175.15 1250.99 1168.13 1253.86 1160.73 1254.88 C 1107.93 1262.67 1132.71 1202.73 1140.56 1175.95 L 1177.78 1052.83 C 1183.77 1033.13 1190.29 1012.85 1195.65 992.934 C 1201.86 969.862 1179.82 979.524 1179.19 970.47 C 1180.44 968.546 1180.58 967.427 1182.72 967.241 C 1190.7 966.549 1199.5 966.17 1207.42 965.425 C 1222.93 963.965 1235.66 960.678 1250.32 956.061 z" fill="rgb(38,77,46)"/>
      <path d="M 1037.95 719.514 C 1025.66 717.65 1019.72 714.748 1010.29 704.686 C 1003.04 696.944 997.018 672.035 1015.78 674.881 C 1022.79 675.945 1029.71 687.691 1033.08 694.388 C 1033.69 696.159 1034.29 697.165 1035.16 698.81 C 1035.63 701.455 1036.42 700.783 1039.23 701.235 C 1039.72 707.085 1040.04 711.46 1040.03 717.358 C 1041.1 717.018 1042.16 716.689 1043.24 716.37 C 1044.35 712.223 1046.51 706.389 1047.92 702.177 C 1048.57 703.041 1049.89 705.597 1050.59 706.007 C 1051.65 705.99 1051.64 704.457 1051.73 703.73 C 1057.55 696.843 1065.54 687.399 1075.53 690.412 C 1077.57 692.337 1079.43 694.219 1079.08 697.251 C 1077.23 713.659 1062.21 719.367 1049.27 721.742 C 1047.56 721.921 1046.76 721.837 1045.07 721.752 C 1039.87 732.028 1040.06 743.256 1039.88 754.66 C 1040.39 761.021 1039 766.768 1041.44 771.017 C 1046.23 760.933 1053.47 745.967 1067.11 749.082 C 1068.84 750.466 1070.72 751.637 1070.69 754.169 C 1070.46 770.921 1050.31 777.576 1038.96 782.991 C 1037.49 792.439 1036.96 801.332 1035.63 810.34 C 1035.27 806.902 1033.92 805.721 1031.82 802.956 C 1034.73 795.558 1037.36 731.401 1037.95 719.514 z" fill="rgb(38,77,46)"/>
      <path d="M 1045.07 721.752 C 1047.61 716.919 1066.97 696.112 1071.45 695.971 C 1073.12 697.257 1068.52 700.4 1067.61 701.337 C 1063.3 705.765 1054 711.518 1052.2 717.445 C 1051.89 718.491 1051.6 718.943 1050.9 719.773 L 1049.27 721.742 C 1047.56 721.921 1046.76 721.837 1045.07 721.752 z" fill="rgb(118,137,117)"/>
      <path d="M 1040.81 774.651 C 1051.56 767.728 1056.03 760.989 1062.34 756.654 C 1062.73 756.889 1062.83 757.2 1063.04 757.593 C 1062.46 761.962 1045.14 774.192 1040.36 776.027 L 1040.81 774.651 z" fill="rgb(155,170,154)"/>
      <path d="M 1040.36 776.027 C 1036.08 777.163 1039.37 757.674 1039.88 754.66 C 1040.39 761.021 1039 766.768 1041.44 771.017 L 1040.81 774.651 L 1040.36 776.027 z" fill="rgb(251,244,230)"/>
      <path d="M 1040.03 717.358 C 1041.1 717.018 1042.16 716.689 1043.24 716.37 C 1042.11 718.996 1039.9 724.075 1040.03 717.358 z" fill="rgb(251,244,230)"/>
      <path d="M 1012.73 682.741 C 1018.59 685.811 1028.72 702.145 1031.94 708.525 L 1034.39 713.405 C 1028.97 710.697 1018.11 689.604 1012.73 682.741 z" fill="rgb(118,137,117)"/>
      <path d="M 1235.77 1351.49 C 1246.63 1351.1 1266.61 1349.11 1275.18 1356.44 C 1287.35 1366.86 1287.22 1383.56 1276.99 1395.68 C 1264.19 1403.38 1250.36 1401.12 1234.98 1401.01 C 1235 1394.73 1234.21 1354.52 1235.77 1351.49 z" fill="rgb(179,165,155)"/>
      <path d="M 1245.72 1360 C 1251.46 1359.99 1261.82 1359.22 1266.66 1362.38 C 1275.6 1368.22 1275.39 1379.37 1269.85 1387.4 C 1261.32 1393.14 1256.18 1392.16 1245.78 1392.23 C 1245.45 1381.49 1245.43 1370.74 1245.72 1360 z" fill="rgb(251,244,230)"/>
      <path d="M 773.284 1351.17 C 779.339 1350.81 785.114 1350.16 790.996 1352.06 C 813.019 1359.21 815.908 1389.58 794.004 1399 C 792.783 1399.53 791.677 1399.96 790.475 1400.51 C 783.577 1401.59 775.139 1401.45 768.595 1398.75 C 762.893 1396.37 758.415 1391.76 756.208 1385.99 C 750.119 1370.06 758.089 1356.93 773.284 1351.17 z" fill="rgb(179,165,155)"/>
      <path d="M 777.578 1359.61 C 786.685 1357.42 795.843 1363.02 798.056 1372.12 C 800.268 1381.22 794.701 1390.39 785.607 1392.63 C 776.475 1394.88 767.253 1389.28 765.031 1380.15 C 762.809 1371.01 768.433 1361.8 777.578 1359.61 z" fill="rgb(251,244,230)"/>
      <path d="M 1359.23 1351.14 C 1372.22 1350.06 1383.94 1350.81 1391.5 1363.49 C 1395.02 1369.53 1395.86 1376.78 1393.79 1383.46 C 1390.88 1393.03 1385.12 1396.74 1376.79 1400.91 C 1355.2 1403.1 1337.71 1395.22 1341.73 1367.99 C 1342.83 1360.48 1352.65 1354.44 1359.23 1351.14 z" fill="rgb(179,165,155)"/>
      <path d="M 1361.63 1360.64 C 1367.3 1358.45 1373.72 1359.53 1378.36 1363.46 C 1383 1367.39 1385.13 1373.53 1383.91 1379.49 C 1382.69 1385.45 1378.32 1390.26 1372.5 1392.05 C 1363.94 1394.68 1354.84 1390.06 1351.91 1381.59 C 1348.98 1373.13 1353.28 1363.87 1361.63 1360.64 z" fill="rgb(251,244,230)"/>
      <path d="M 1020.96 597.745 C 1021.37 590.029 1026.96 577.75 1032.54 573.109 C 1044.8 562.909 1048.14 578.187 1046.68 586.993 C 1044.88 597.808 1033.12 617.732 1025.43 623.475 C 1023.83 623.554 1022.45 624.744 1021.32 625.848 C 1000.51 630.084 981.02 618.294 973.24 598.476 C 971.419 593.836 974.974 587.333 979.994 586.843 C 994.431 585.435 1005.58 599.224 1016.04 606.209 C 1017.71 606.933 1017.86 606.65 1019.46 605.83 C 1019.2 604.493 1018.93 603.211 1018.74 601.861 C 1019.54 600.471 1020.23 599.161 1020.96 597.745 z" fill="rgb(38,77,46)"/>
      <path d="M 1018.74 601.861 C 1019.54 600.471 1020.23 599.161 1020.96 597.745 C 1021.03 600.024 1022.11 605.152 1019.46 605.83 C 1019.2 604.493 1018.93 603.211 1018.74 601.861 z" fill="rgb(251,244,230)"/>
      <path d="M 1039.94 574.843 L 1040.33 574.973 C 1040.73 576.069 1039.25 577.395 1038.61 578.371 C 1033.09 586.765 1029.42 598.581 1028.15 608.522 C 1027.55 613.268 1028.32 612.382 1025.56 616.286 C 1024.29 609.35 1032.69 576.504 1039.94 574.843 z" fill="rgb(155,170,154)"/>
      <path d="M 982.76 595.155 C 991.987 598.901 1009.45 611.316 1016.56 618.123 C 1011.75 616.551 985.57 599.019 982.76 595.155 z" fill="rgb(155,170,154)"/>
      <path d="M 998.493 537.2 C 998.08 531.608 993.359 510.729 1006.55 517.881 C 1011.24 520.42 1009.2 542.581 1008.8 547.553 C 1008.95 550.144 1008.51 552.191 1008.28 554.751 C 1015.06 564.722 1008.02 565.846 1008.28 573.934 L 1006.95 574.045 C 1005.13 571.655 1000.08 572.102 997.999 572.813 C 989.254 575.799 960.452 551.912 980.449 551.776 C 978.087 549.003 968.156 541.546 968.273 538.594 C 968.619 529.892 982.411 533.711 981.877 531.139 C 980.786 525.885 980.893 515.059 989.367 518.254 C 991.059 518.892 995.905 537.686 996.577 539.827 C 997.263 538.918 997.843 538.141 998.493 537.2 z" fill="rgb(230,117,110)"/>
      <path d="M 1006.95 574.045 C 1005.13 571.655 1000.08 572.102 997.999 572.813 C 989.254 575.799 960.452 551.912 980.449 551.776 C 981.873 552.448 982.321 552.662 984.048 552.913 C 988.483 553.556 995.246 564.659 999.314 563.614 C 1000.75 563.245 1003.56 557.095 1005.34 555.322 L 1008.28 554.751 C 1015.06 564.722 1008.02 565.846 1008.28 573.934 L 1006.95 574.045 z" fill="rgb(38,77,46)"/>
      <path d="M 1002.22 544.267 C 1005.2 539.635 1004.51 539.605 1005.5 534.445 C 1007.9 541.747 1007.31 539.314 1008.8 547.553 C 1008.95 550.144 1008.51 552.191 1008.28 554.751 L 1005.34 555.322 C 997.747 551.935 1004 550.248 1002.22 544.267 z" fill="rgb(232,154,133)"/>
      <path d="M 1002.22 544.267 C 1001.82 541.216 998.787 519.721 1003.46 519.612 C 1007.65 519.514 1005.7 532.206 1005.5 534.445 C 1004.51 539.605 1005.2 539.635 1002.22 544.267 z" fill="rgb(251,244,230)"/>
      <path d="M 998.493 537.2 C 999.261 539.154 1000.88 547.512 999.107 549.216 C 997.87 549.238 996.718 541.064 996.577 539.827 C 997.263 538.918 997.843 538.141 998.493 537.2 z" fill="rgb(245,222,218)"/>
      <path d="M 974.163 533.477 C 977.304 534.567 980.135 535.284 983.123 536.255 C 984.225 537.957 994.109 552.764 994.134 552.825 C 993.889 553.466 993.307 553.75 992.722 554.197 C 992.935 554.304 984.829 550.382 985.522 551.306 C 980.551 544.679 968.886 541.711 974.163 533.477 z" fill="rgb(245,222,218)"/>
      <path d="M 985.856 521.469 C 990.72 525.87 996.591 542.566 995.231 549.589 C 986.213 537.271 982.434 535.38 985.856 521.469 z" fill="rgb(245,222,218)"/>
      <path d="M 834.373 1351.51 C 848.798 1350.97 876.511 1348.93 872.975 1373 C 872.164 1378.52 866.704 1382.25 862.437 1385.19 C 864.593 1387.98 872.502 1397.25 873.677 1399.45 C 873.485 1401.9 866.452 1400.9 864.098 1400.93 C 861.466 1399.71 858.446 1393.53 855.252 1389.76 C 854.023 1386.21 843.844 1386.3 842.4 1387.62 C 839.952 1389.87 845.802 1403.33 836.945 1401.17 C 835.288 1400.76 831.571 1402 831.569 1399.02 C 831.635 1386.04 831.903 1373.07 831.319 1360.09 C 831.082 1354.81 829.108 1352.01 834.373 1351.51 z" fill="rgb(179,165,155)"/>
      <path d="M 843.657 1360.38 C 848.024 1360.14 856.065 1359.22 859.718 1362.3 C 861.555 1363.86 862.705 1366.09 862.919 1368.49 C 863.268 1372.38 861.335 1374.82 858.972 1377.48 C 852.031 1378.83 848.765 1378.69 841.747 1378.65 C 841.695 1374.24 840.252 1362.75 843.657 1360.38 z" fill="rgb(251,244,230)"/>
      <path d="M 912.021 1351.02 C 922.046 1351.09 921.026 1349.46 925.67 1359.48 C 931.651 1372.4 937.172 1385.45 942.957 1398.48 C 945.642 1402.49 934.089 1400.69 933.987 1400.6 C 928.086 1395.27 934.447 1390.47 924.25 1390.14 L 904.081 1390.18 C 901.465 1397.41 902.303 1402.03 894.986 1400.9 C 895.071 1400.91 890.928 1401.04 891.261 1400.02 C 896.644 1383.39 905.013 1367.18 912.021 1351.02 z" fill="rgb(179,165,155)"/>
      <path d="M 917.244 1363.66 C 920.32 1368.24 922.515 1374.07 924.622 1379.18 C 926.042 1382.62 920.215 1381.89 918.403 1381.98 C 915.83 1381.97 912.369 1382.18 909.903 1381.81 C 909.753 1381.79 909.258 1381.59 909.273 1381.42 C 909.558 1378.12 915.02 1367.83 916.336 1365.38 L 917.244 1363.66 z" fill="rgb(251,244,230)"/>
      <path d="M 975.901 730.969 C 969.639 731.526 959.752 726.919 955.317 723.666 C 949.824 719.166 949.212 718.162 954.81 713.739 C 957.331 711.746 952.149 707.056 957.251 703.57 C 962.082 700.269 962.317 703.298 963.55 702.647 C 964.03 701.662 963.796 699.637 963.8 698.501 C 962.49 695.708 969.127 690.257 970.956 692.077 C 974.053 696.235 977.524 682.291 981.425 687.923 C 987.882 697.243 986.559 707.206 986.809 717.431 L 987.782 718.745 C 991.81 723.656 988.149 728.124 986.262 734.075 C 985.508 735.491 985.279 735.344 983.683 736.224 C 980.085 732.854 980.467 733.088 975.901 730.969 z" fill="rgb(225,99,89)"/>
      <path d="M 975.901 730.969 C 976.122 729.459 976.342 727.948 976.563 726.438 C 983.345 725.504 982.542 721.411 986.809 717.431 L 987.782 718.745 C 991.81 723.656 988.149 728.124 986.262 734.075 C 985.508 735.491 985.279 735.344 983.683 736.224 C 980.085 732.854 980.467 733.088 975.901 730.969 z" fill="rgb(38,77,46)"/>
      <path d="M 954.722 716.069 C 966.605 716.009 961.196 718.486 968.762 721.581 C 971.973 720.132 971.262 717.918 975.899 725.986 C 971.454 729.916 956.317 724.121 954.722 716.069 z" fill="rgb(245,222,218)"/>
      <path d="M 970.01 694.317 C 973.673 696.103 973.512 697.267 974.64 701.117 L 975.173 702.974 C 975.947 705.618 980.194 716.619 977.17 717.279 C 970.67 708.793 964.536 705.365 969.359 695.682 L 970.01 694.317 z" fill="rgb(251,244,230)"/>
      <path d="M 978.768 689.524 C 983.971 693.853 984.209 708.761 982.192 714.382 C 979.362 708.035 974.967 696.005 978.768 689.524 z" fill="rgb(251,244,230)"/>
      <path d="M 958.278 705.067 C 959.146 705.034 963.485 704.65 963.948 704.977 C 968.197 707.984 973.074 715.411 974.998 720.128 C 969.934 716.893 964.312 711.583 958.234 709.081 C 957.693 708.858 957.965 706.91 958.074 706.32 L 958.278 705.067 z" fill="rgb(245,222,218)"/>
      <path d="M 1166.04 1350.89 C 1178.59 1350.6 1176.13 1348.88 1176.51 1358.59 C 1176.87 1368.04 1172.35 1388.97 1183.99 1392.3 C 1187.64 1393.35 1195.27 1392.83 1197.35 1389.6 C 1202.61 1381.41 1198.89 1366.13 1199.79 1356.5 C 1199.99 1354.36 1198.58 1350.67 1201.97 1350.97 C 1208.88 1351.58 1210.52 1348.7 1210.59 1355.75 C 1210.59 1364.08 1213.18 1387.92 1205.72 1395.39 C 1196.02 1405.11 1172.84 1403.57 1167.52 1389.78 C 1165.04 1383.37 1166.08 1359.82 1166.04 1350.89 z" fill="rgb(179,165,155)"/>
      <path d="M 1061.97 1351.25 C 1069.15 1350.84 1079.3 1350.36 1085.85 1354.22 C 1086.35 1354.51 1084.69 1361.72 1084.33 1361.99 C 1080.91 1362.23 1063.55 1352.72 1060.15 1364.04 C 1057.67 1370.18 1069.15 1372.34 1073.49 1373.09 C 1094.95 1376.84 1095.08 1398.03 1072.23 1401.4 C 1069.8 1401.37 1048.27 1401.18 1049.4 1394.38 C 1049.41 1394.32 1051.95 1389.98 1052.29 1389.49 C 1058.6 1391.75 1069.57 1395.31 1075.43 1392.47 C 1081.33 1389.61 1079.1 1382.28 1072.45 1381.26 C 1068.9 1379.81 1057.24 1378.15 1054.52 1375.91 C 1041.68 1365.33 1052.14 1354.83 1061.97 1351.25 z" fill="rgb(179,165,155)"/>
      <path d="M 643.894 1350.92 C 655.986 1350.9 668.372 1350.62 680.389 1351.11 C 681.82 1351.16 681.431 1359.29 680.477 1359.4 C 672.707 1360.34 663.002 1359.81 654.997 1359.89 C 654.933 1364.57 654.922 1369.25 654.964 1373.93 C 660.458 1374.04 675.092 1373.73 679.377 1374.6 C 679.231 1375.43 679.091 1376.27 678.957 1377.1 C 678.797 1378.15 678.497 1381.2 677.603 1381.37 C 673.146 1382.22 659.332 1381.48 655.025 1381.46 C 655.002 1385.23 656.257 1397.87 654.351 1400.39 C 654.049 1400.78 653.644 1401.01 653.142 1401.02 C 651.3 1401.07 646.415 1401.54 644.882 1400.38 C 643.595 1399.4 643.981 1355.97 643.894 1350.92 z" fill="rgb(179,165,155)"/>
      <path d="M 1105.05 1351.45 C 1118.48 1351.11 1133.36 1350.78 1146.68 1351.63 C 1147.4 1351.68 1147.89 1357.99 1146.55 1358.46 C 1142.84 1359.74 1135.13 1359.03 1131.04 1359.03 L 1131 1385.5 C 1131 1390.03 1131.43 1395.48 1130.59 1399.87 C 1130.21 1401.91 1121.54 1400.75 1121.45 1400.38 C 1120.07 1395.05 1120.93 1387.77 1120.82 1382 C 1120.69 1374.41 1120.81 1366.76 1120.69 1359.14 C 1109.94 1359.03 1102.9 1362.77 1105.05 1351.45 z" fill="rgb(179,165,155)"/>
      <path d="M 702.69 1350.93 C 713.242 1351.07 713.384 1348.81 713.311 1358.67 C 713.23 1369.73 713.31 1381.07 713.323 1392.16 C 718.708 1392.35 724.336 1392.45 729.708 1392.37 C 740.602 1392.19 738.78 1391.16 739.101 1400.96 L 702.754 1400.99 C 702.851 1384.3 702.829 1367.61 702.69 1350.93 z" fill="rgb(179,165,155)"/>
      <path d="M 1003.78 763.506 C 1010.76 775.653 1023.22 790.711 1031.82 802.956 C 1033.92 805.721 1035.27 806.902 1035.63 810.34 L 1031.19 834.562 C 1036.8 826.462 1051.69 803.467 1058.74 798.201 C 1059.84 799.604 1059.79 799.671 1061.27 800.538 C 1053.07 805.627 1037.9 829.345 1031.54 838.545 C 1029.15 866.386 1027.38 893.327 1031.41 921.099 C 1032.01 925.161 1033.69 934.102 1031.83 937.601 L 1030.42 936.851 C 1021.01 898.899 1026.56 847.736 1032.47 809.335 C 1023.76 794.878 1010.29 779.93 1002.04 765.736 C 1002.63 765 1003.21 764.257 1003.78 763.506 z" fill="rgb(62,80,61)"/>
      <path d="M 963.973 1351.3 C 975.657 1350.88 973.644 1349.76 973.661 1361.5 C 973.675 1371.76 973.621 1382.08 973.582 1392.35 C 976.088 1392.32 995.781 1391.61 998.776 1392.56 C 999.668 1392.84 999.291 1399.25 999.271 1401.04 L 963.705 1401 C 964.035 1384.79 963.32 1367.09 963.973 1351.3 z" fill="rgb(179,165,155)"/>
      <path d="M 983.683 736.224 C 985.279 735.344 985.508 735.491 986.262 734.075 C 987.941 739.445 993.987 748.562 994.196 750.495 L 997.255 752.8 C 1001.84 755.598 1001.08 759.86 1002.95 758.743 C 1004.91 759.212 1006.77 759.626 1008.69 760.207 C 1007.13 761.455 1005.46 762.43 1003.78 763.506 C 1003.21 764.257 1002.63 765 1002.04 765.736 C 1000.85 764.623 999.502 763.192 999.348 763.219 C 985.7 765.675 974.951 768.108 962.777 763.115 C 964.149 761.799 965.53 760.522 966.893 759.195 L 966.824 756.967 L 963.831 756.838 C 964.006 754.726 964.182 752.938 964.479 750.851 C 969.547 750.165 976.926 747.361 979.89 752.129 C 982.871 749.352 990.471 753.025 994.414 754.069 C 991.956 750.491 984.18 740.209 983.683 736.224 z" fill="rgb(89,110,88)"/>
      <path d="M 994.196 750.495 L 997.255 752.8 C 1001.84 755.598 1001.08 759.86 1002.95 758.743 C 1004.91 759.212 1006.77 759.626 1008.69 760.207 C 1007.13 761.455 1005.46 762.43 1003.78 763.506 C 1003.21 764.257 1002.63 765 1002.04 765.736 C 1000.85 764.623 999.502 763.192 999.348 763.219 C 985.7 765.675 974.951 768.108 962.777 763.115 C 964.149 761.799 965.53 760.522 966.893 759.195 C 972.311 759.282 994.067 761.751 997.072 757.37 C 996.94 756.874 996.705 756.411 996.38 756.012 C 994.219 753.314 994.345 753.793 994.196 750.495 z" fill="rgb(38,77,46)"/>
      <path d="M 964.479 750.851 C 969.547 750.165 976.926 747.361 979.89 752.129 C 973.953 758.069 975.71 756.092 966.824 756.967 L 963.831 756.838 C 964.006 754.726 964.182 752.938 964.479 750.851 z" fill="rgb(38,77,46)"/>
      <path d="M 1063.22 658.898 C 1064.72 656.707 1072.45 643.76 1073.44 643.143 C 1074.4 643.095 1075.23 643.632 1076.13 644.03 C 1077.64 644.955 1078.47 645.122 1080.19 645.704 C 1085.67 648.082 1087.27 651.835 1088.84 656.966 L 1088.27 658.359 C 1086.83 662.108 1083.46 664.115 1080.2 666.14 C 1078.06 666.737 1077 667.509 1075.82 669.409 C 1072.21 672.39 1072.67 672.601 1068.16 672.76 C 1064.92 671.331 1064.94 671.527 1061.37 671.778 C 1058.62 667.084 1060.29 663.27 1063.22 658.898 z" fill="rgb(230,117,110)"/>
      <path d="M 1063.22 658.898 C 1070.45 661.044 1070.05 663.597 1075.82 669.409 C 1072.21 672.39 1072.67 672.601 1068.16 672.76 C 1064.92 671.331 1064.94 671.527 1061.37 671.778 C 1058.62 667.084 1060.29 663.27 1063.22 658.898 z" fill="rgb(38,77,46)"/>
      <path d="M 1088.84 656.966 L 1088.27 658.359 C 1086.83 662.108 1083.46 664.115 1080.2 666.14 C 1079.47 665.474 1076.78 663.747 1076.86 663.052 C 1077.32 659.155 1085.88 657.45 1088.84 656.966 z" fill="rgb(225,99,89)"/>
      <path d="M 1076.13 644.03 C 1077.64 644.955 1078.47 645.122 1080.19 645.704 C 1076.07 649.338 1071.83 654.196 1067.83 658.168 C 1070.54 653.397 1073.8 649.005 1076.13 644.03 z" fill="rgb(232,154,133)"/>
      <path d="M 1307.49 1351.42 C 1311.98 1351.22 1313.32 1351.26 1317.81 1351.56 C 1318.01 1368.04 1317.79 1384.51 1317.89 1400.98 C 1316.09 1401.01 1309.2 1401.91 1307.8 1400.43 C 1306.36 1398.9 1307.48 1357.57 1307.49 1351.42 z" fill="rgb(179,165,155)"/>
      <path d="M 1060.99 787.064 C 1064.02 784.805 1072.84 770.419 1074.58 772.507 C 1075.26 773.323 1073.31 775.747 1073.61 778.457 C 1079.5 775.75 1081.27 780.529 1086.88 785.267 C 1082.72 788.191 1075.71 793.237 1071.24 795.427 C 1066.53 799.366 1066.94 799.581 1061.27 800.538 C 1059.79 799.671 1059.84 799.604 1058.74 798.201 C 1058.38 791.461 1057.63 792.43 1060.99 787.064 z" fill="rgb(230,117,110)"/>
      <path d="M 1060.99 787.064 C 1062.94 788.286 1064.88 789.547 1066.79 790.845 C 1068.65 792.343 1069.73 793.523 1071.24 795.427 C 1066.53 799.366 1066.94 799.581 1061.27 800.538 C 1059.79 799.671 1059.84 799.604 1058.74 798.201 C 1058.38 791.461 1057.63 792.43 1060.99 787.064 z" fill="rgb(38,77,46)"/>
      <path d="M 1004.97 732.746 L 1006.29 732.146 C 1009.65 730.492 1013.39 730.305 1014.58 734.627 C 1017.27 744.382 1012.68 752.006 1008.69 760.207 C 1006.77 759.626 1004.91 759.212 1002.95 758.743 C 1001.08 759.86 1001.84 755.598 997.255 752.8 C 998.658 744.892 999.918 739.075 1004.97 732.746 z" fill="rgb(38,77,46)"/>
      <path d="M 997.255 752.8 C 998.658 744.892 999.918 739.075 1004.97 732.746 C 1006.86 745.809 1004.3 746.43 1002.95 758.743 C 1001.08 759.86 1001.84 755.598 997.255 752.8 z" fill="rgb(118,137,117)"/>
      <path d="M 1021.32 625.848 C 1022.45 624.744 1023.83 623.554 1025.43 623.475 C 1027.03 633.517 1030.08 643.645 1032.21 653.58 C 1035.5 668.89 1038.14 685.601 1039.23 701.235 C 1036.42 700.783 1035.63 701.455 1035.16 698.81 C 1034.29 697.165 1033.69 696.159 1033.08 694.388 L 1034.5 689.487 C 1033.33 679.893 1025.86 631.611 1021.32 625.848 z" fill="rgb(62,80,61)"/>
      <path d="M 1034.5 689.487 C 1035.01 692.236 1035.57 696.016 1035.16 698.81 C 1034.29 697.165 1033.69 696.159 1033.08 694.388 L 1034.5 689.487 z" fill="rgb(251,244,230)"/>
      <path d="M 1061.37 671.778 C 1064.94 671.527 1064.92 671.331 1068.16 672.76 C 1061.01 674.327 1053.08 696.956 1051.73 703.73 C 1051.64 704.457 1051.65 705.99 1050.59 706.007 C 1049.89 705.597 1048.57 703.041 1047.92 702.177 C 1048.48 701.105 1061.16 672.789 1061.05 673.37 L 1061.37 671.778 z" fill="rgb(62,80,61)"/>
      <path d="M 1006.95 574.045 L 1008.28 573.934 C 1011.79 580.12 1016.38 594.827 1018.74 601.861 C 1018.93 603.211 1019.2 604.493 1019.46 605.83 C 1017.86 606.65 1017.71 606.933 1016.04 606.209 C 1013.67 595.71 1008.39 582.313 1006.95 574.045 z" fill="rgb(62,80,61)"/>
      <path d="M 958.102 756.788 C 960.577 752.695 960.167 752.709 964.479 750.851 C 964.182 752.938 964.006 754.726 963.831 756.838 L 966.824 756.967 L 966.893 759.195 C 965.53 760.522 964.149 761.799 962.777 763.115 C 959.975 761.08 958.291 760.494 958.102 756.788 z" fill="rgb(38,77,46)"/>
  </g>
</svg>
