<?xml version='1.0' encoding='UTF-8'?>
<svg version="1.1" xmlns="http://www.w3.org/2000/svg" viewBox="0 0 2048 2048" width="2048" height="2048">
  <rect x="0" y="0" width="2048" height="2048" fill="#002868"/>
  <path d="M 453.529 750.234 C 502.404 746.702 534.614 770.605 546.237 817.947 C 557.329 864.99 549.835 914.5 525.316 956.152 C 513.851 976.045 500.95 992.129 494.512 1015.19 C 488.308 1037.41 487.964 1063.43 484.116 1085.68 C 478.004 1121.03 455.609 1171.26 436.652 1201.73 C 410.829 1243.24 368.478 1286.01 319.474 1296.74 C 289.982 1303.2 268.974 1298.26 243.544 1282.59 C 207.535 1258.2 196.577 1225.7 196.552 1183.38 C 196.54 1163.99 197.255 1146.48 188.127 1128.94 C 170.976 1095.71 137.121 1091.34 129.739 1051.61 C 115.886 982.249 179.29 946.857 220.046 903.99 C 235.388 887.852 249.908 868.88 263.772 851.346 C 272.8 839.928 279.774 829.929 293.067 822.835 C 312.372 812.532 331.672 829.611 350.092 817.794 C 358.29 812.508 363.995 803.892 371.029 797.22 C 397.53 771.413 417.316 757.084 453.529 750.234 z M 332.86 830.221 C 321.797 826.377 309.436 821.301 297.925 827.083 C 274.896 839.235 262.537 865.839 245.961 885.041 C 238.178 894.057 230.796 901.922 222.686 910.492 C 193.373 941.467 151.979 965.301 137.433 1007.43 C 131.347 1025.06 131.846 1048.79 140.436 1065.62 C 153.8 1090.85 183.256 1100.58 195.485 1128.61 C 201.422 1140.95 202.146 1155.18 202.331 1168.79 C 202.855 1207.44 204.638 1240.23 234.582 1267.7 C 269.785 1300 308.902 1300.66 350.154 1278.87 C 375.752 1265.35 398.429 1243.66 415.726 1220.16 C 420.054 1215.18 426.97 1204.75 430.612 1198.93 C 456.292 1158.06 473.461 1112.42 481.091 1064.76 C 483.757 1048.83 485.154 1024.29 489.848 1010.62 C 506.354 962.544 542.087 932.176 545.112 877.513 C 545.965 862.098 546.477 847.494 542.898 831.827 C 536.382 799.942 525.749 772.267 491.939 760.888 C 462.887 751.11 440.016 757.908 413.376 771.002 C 402.142 777.393 394.733 783.185 385.21 791.997 C 366.471 809.335 359.322 824.284 332.86 830.221 z" fill-rule="evenodd" fill="#FFFFFF" fill-opacity="1"/>
  <path d="M 431.216 773.935 C 485.449 762.613 522.957 787.183 535.254 841.041 C 543.092 889.708 533.606 925.361 506.991 966.307 C 498.68 979.094 487.814 998.803 483.344 1013.28 C 478.971 1027.45 479.609 1049.33 477.194 1065.59 C 469.641 1116.43 447.844 1164.12 417.75 1205.54 C 414.882 1209.51 411.897 1213.39 408.8 1217.18 C 401.38 1227.9 384.041 1242.07 373.403 1249.47 C 335.181 1276.06 280.597 1295.77 242.292 1258.24 C 224.396 1240.71 216.536 1223.14 211.825 1199.04 C 207.414 1176.49 211.128 1153.99 203.69 1132.57 C 186.628 1092.67 145.024 1069.97 149.857 1021.7 C 153.752 973.599 201.712 948.688 230.339 915.457 C 249.865 892.791 265.659 866.101 286.286 844.756 C 299.302 831.288 317.487 830.389 334.524 832.854 C 339.478 833.57 343.635 832.38 348.35 834.912 L 349.789 836.757 C 348.789 838.362 348.459 839.24 346.223 839.34 C 334.438 839.867 311.771 834.048 301.211 841.235 C 273.171 860.319 253.686 899.51 230.319 924.387 C 197.848 958.956 146.639 987.967 157.034 1042.03 C 163.998 1074.05 192.455 1095.78 206.575 1124.01 C 214.852 1140.56 214.473 1162.91 216.084 1181.02 C 219.354 1217.77 232.063 1250.22 267.009 1266.61 C 286.061 1275.72 305.749 1273.75 324.993 1267.42 C 405.993 1240.77 448.904 1158.65 468.913 1081.22 C 474.345 1060.2 471.355 1034.4 477.063 1014.52 C 485.85 983.917 506.792 955.811 521.099 927.466 C 534.697 891.135 538.286 856.621 522.206 820.132 C 503.582 777.867 456.863 767.457 417.073 785.868 C 388.454 799.109 376.643 826.873 354.237 847.087 C 343.34 856.828 319.079 845.996 306.552 855.709 C 283.461 873.19 272.091 903.234 252.336 924.151 C 232.994 944.63 212.064 960.888 193.185 982.181 C 171.811 1006.29 169.827 1036.48 183.389 1065.09 C 194.482 1087.04 211.67 1102.54 219.812 1126.32 C 234.987 1170.64 220.882 1229.26 277.249 1248.27 C 327.808 1265.32 375.783 1229.14 406.018 1192.83 C 409.238 1189.81 417.14 1178.93 419.491 1174.87 C 440.288 1138.96 459.251 1100.68 463.787 1058.88 C 464.443 1052.83 465.24 1042.77 463.903 1037.05 L 462.737 1036.46 C 462.366 1046.33 457.54 1075.18 455.358 1084.88 C 447.506 1119.79 427.321 1157.48 404.138 1184.71 C 376.871 1213.51 332.429 1248.5 289.57 1238.81 C 272.396 1234.93 257.506 1224.3 248.25 1209.32 C 234.738 1187.21 236.765 1162.6 228.72 1137.27 C 215.864 1095.48 176.985 1062.3 189.548 1014.97 C 199.519 977.394 237.521 955.044 261.139 926.757 C 277.057 907.694 287.555 884.353 307.628 869.092 C 323.701 856.873 343.797 864.372 358.93 851.367 C 377.217 834.639 387.083 815.039 409.248 801.866 C 443.941 781.248 486.897 791.743 506.775 827.433 C 523.361 857.215 522.447 891.597 513.293 923.895 C 503.477 957.221 482.614 979.801 472.677 1010.92 C 466.871 1029.11 471.386 1058.63 465.83 1080.11 C 445.003 1160.63 386.569 1259.65 294.045 1259.04 C 277.549 1256.29 262.323 1250.43 249.198 1238.95 C 215.184 1209.19 228.562 1160.95 212.47 1123.77 C 201.353 1098.09 182.954 1083.9 173.695 1056.87 C 150.658 989.632 211.961 959.684 249.665 917.035 C 267.579 896.889 280.113 867.761 302.305 851.502 C 313.185 842.114 344.544 849.641 352.832 840.182 C 379.566 809.667 390.191 788.667 431.216 773.935 z M 360.952 1214.55 C 366.433 1212.81 385.593 1195.1 390.38 1190.41 C 428.576 1152.9 449.487 1103.17 456.38 1050.68 C 459.196 1029.24 460.8 1004.18 473.144 985.626 C 484.758 968.172 493.878 955.54 502.944 936.37 C 514.902 905.343 518.469 868.688 504.796 837.614 C 497.06 820.46 482.792 807.107 465.164 800.524 C 448.607 794.483 431.83 797.256 416.324 804.707 C 391.544 816.615 381.975 839.796 361.605 856.92 C 345.167 870.739 329.687 861.956 313.521 873.41 C 291.257 889.414 279.237 915.579 261.015 935.44 C 245.105 952.781 227.874 967.073 212.513 985.122 C 188.623 1013.19 187.564 1044.17 204.99 1075.97 C 215.289 1094.76 226.868 1112.99 233.337 1133.69 C 245.491 1172.59 240.191 1217.75 288.679 1232.07 C 313.86 1239.51 339.952 1227.26 360.952 1214.55 z" fill-rule="evenodd" fill="#FFFFFF" fill-opacity="1"/>
  <path d="M 352.834 1208.69 C 320.127 1223.88 270.517 1229.07 254.693 1187.92 C 246.988 1167.54 247.05 1145.35 238.905 1124.94 C 233.887 1112.44 226.639 1100.24 219.666 1088.7 C 201.111 1057.99 195.409 1021.98 218.907 992.117 C 234.491 972.313 255.065 956.438 271.414 937.174 C 285.901 920.104 296.918 899.465 314.191 884.838 C 326.596 874.355 342.855 876.673 356.252 868.559 C 373.255 857.176 383.954 840.062 401.193 828.65 C 428.929 810.083 468.813 812.82 486.454 844.036 C 502.704 872.79 505.042 898.349 497.248 929.783 C 489.626 955.519 479.764 967.968 466.722 990.639 C 453.94 1012.86 454.152 1041.91 450.043 1066.41 C 439.674 1123.26 405.349 1181.58 352.834 1208.69 z M 486.589 944.083 C 498.546 911.729 500.47 887.431 485.846 855.992 C 466.654 814.732 426.148 815.086 394.762 841.525 C 378.787 854.981 365.959 874.734 345.185 879.927 L 343.943 880.227 C 333.326 882.098 325.616 883.343 317.214 890.837 C 298.433 907.668 286.818 930.357 269.982 949.018 C 254.659 966.003 236.141 979.765 222.709 998.026 C 190.091 1042.25 226.561 1083.24 244.454 1123.66 C 252.165 1143.48 252.364 1166.38 260.435 1185.89 C 266.277 1200.01 281.041 1212.33 296.554 1213.94 C 341.568 1218.61 387.049 1184.19 410.018 1149.13 C 429.134 1119.81 441.58 1086.65 446.476 1051.99 C 448.216 1039.84 448.247 1027.27 451.412 1015.23 C 458.482 988.335 475.741 968.757 486.589 944.083 z" fill-rule="evenodd" fill="#FFFFFF" fill-opacity="1"/>
  <path d="M 358.156 885.013 C 365.181 881.925 369.864 879.556 376 874.901 C 386.641 866.956 394.632 856.326 406.004 849.306 C 435.288 831.227 466.907 848.396 478.201 878.328 C 483.669 892.818 485.499 908.105 483.033 923.47 C 475.035 958.337 460.19 983.877 446.676 1016.18 C 444.081 1022.38 442.788 1042.72 441.693 1050.34 C 438.276 1074.13 430.782 1095.99 420.26 1117.56 C 405.937 1148.67 374.489 1185.61 341.655 1197.53 C 327.097 1202.81 302.852 1205.11 288.741 1197.36 C 253.836 1179.99 263.001 1140.66 249.889 1112.38 C 235.076 1080.43 206.475 1049.47 225.245 1010.99 C 237.292 986.288 264.245 973.856 281.216 952.257 C 294.392 935.488 301.854 915.131 317.488 900.856 C 325.575 893.734 347.117 888.54 358.156 885.013 z M 433.719 1058.22 C 436.198 1051.83 438.225 1029.53 440.357 1019.89 C 442.538 1011.82 443.816 1006.71 447.14 999.111 C 451.293 990.537 459.927 973.288 462.401 964.9 L 463.686 961.09 L 464.281 960.045 C 482.922 926.563 486.941 872.362 447.609 851.916 C 438.212 847.118 427.242 846.445 417.329 850.059 C 399.298 856.467 388.861 874.55 371.884 884.714 C 357.736 893.185 330.265 896.893 319.778 906.844 C 305.059 920.812 299.1 940.204 284.481 957.807 C 265.852 980.237 241.019 989.692 229.703 1014.99 C 222.239 1031.67 225.68 1049 231.858 1065.24 C 237.698 1080.6 250.86 1097.99 256.225 1111.58 C 267.235 1139.48 260.728 1179.74 296.146 1193.62 C 311.047 1199.46 330.944 1196.96 345.139 1190.05 C 383.358 1171.43 410.926 1130.15 424.975 1091.15 C 427.409 1084.39 433.101 1064.96 433.719 1058.22 z" fill-rule="evenodd" fill="#FFFFFF" fill-opacity="1"/>
  <path d="M 431.802 1046.36 C 427.531 1085.85 395.902 1136.45 365.783 1162.29 C 344.994 1180.13 302.937 1197.45 281.916 1170.67 C 270 1155.48 272.325 1135.61 265.719 1118.34 C 254.844 1089.93 230.955 1064.87 236.061 1032.23 C 240.738 999.768 267.204 987.446 287.55 965.704 C 302.597 949.626 313.965 928.209 331.338 914.66 C 345.251 903.705 363.22 899.473 378.176 891.047 C 401.78 877.749 433.627 855.845 454.406 887.312 C 466.523 905.661 465.66 929.431 461.144 950.491 C 458.634 957.912 455.883 965.644 453.599 973.106 C 451.028 975.711 446.713 993.742 443.853 999.833 C 441.297 1003.72 440.217 1008.71 438.739 1013.24 C 436.626 1022.03 432.567 1037.77 431.802 1046.36 z M 287.341 1167.87 C 290.112 1170.55 292.193 1172.48 295.159 1174.94 C 343.603 1183.81 372.001 1154.16 397.459 1116.6 C 421.517 1081.11 426.82 1042.23 436.278 1001.81 C 443.788 971.576 464.504 940.815 456.095 907.419 C 452.189 890.302 442.445 875.458 422.899 876.369 C 405.962 880.588 397.009 887.599 381.926 895.974 C 368.429 903.468 351.981 908.564 339.096 917.329 C 317.788 931.824 305.455 957.169 287.279 975.173 C 274.013 988.314 258.159 997.785 249.119 1014.47 C 227.028 1051.87 256.623 1079.15 270.428 1112.49 C 277.919 1130.58 276.317 1150.53 287.341 1167.87 z" fill-rule="evenodd" fill="#FFFFFF" fill-opacity="1"/>
  <path d="M 406.741 902.321 C 439.232 899.458 443.88 931.076 440.237 955.891 C 436.583 980.785 426.848 997.06 421.054 1019.47 C 407.623 1071.43 395.949 1132.06 340.212 1155.19 C 326.718 1160.75 312.144 1157.62 299.058 1151.24 C 277.965 1137.83 284.261 1123.32 277.206 1103.18 C 271.087 1087.71 261.397 1075.05 257.29 1058.67 C 249.055 1025.83 275.911 1003.33 294.282 980.279 C 303.411 968.822 313.659 954.13 324.062 943.321 C 344.621 921.958 378.351 908.816 406.741 902.321 z M 301.688 1145.79 C 340.003 1167.38 373.856 1130.21 390.513 1099.41 C 403.364 1075.62 407.21 1049.11 414.503 1023.49 C 423.114 993.225 442.58 959.224 434.867 926.717 C 431.083 910.771 418.665 906.808 404.158 908.397 C 371.884 917.802 341.444 928.51 319.38 955.424 C 311.568 964.953 303.993 975.114 296.539 984.467 C 278.466 1007.23 252.961 1028.77 263.363 1061.04 C 268.014 1075.48 276.489 1086.34 281.703 1099.71 C 289.03 1118.5 281.675 1132.78 301.688 1145.79 z" fill-rule="evenodd" fill="#F5BC00" fill-opacity="1"/>
  <path d="M 398.603 925.485 C 402.068 925.161 407.407 925.499 411.029 925.616 C 417.482 929.469 422.114 931.867 422.519 940.128 C 423.085 964.807 415.63 981.339 408.752 1005.96 C 397.075 1047.76 386.63 1118.22 335.667 1129.58 C 327.551 1131.39 317.051 1122.94 311.276 1117.29 C 304.461 1108.55 297.821 1094.87 291.534 1086.79 C 256.301 1041.53 277.997 1024.54 307.827 989.355 C 332.496 960.26 356.743 930.131 398.603 925.485 z M 312.677 1108.59 C 322.68 1124.03 336.401 1130.22 352.578 1117.29 C 385.791 1090.74 392.611 1043.53 402.68 1004.83 C 407.006 988.128 414.494 972.048 416.515 954.718 C 418.33 939.16 418.249 931.189 400.815 930.159 C 345.342 940.131 322.758 982.03 288.349 1021.03 C 262.292 1050.57 297.62 1082.5 312.677 1108.59 z" fill-rule="evenodd" fill="#F5BC00" fill-opacity="1"/>
  <path d="M 1229.56 932.896 C 1258.18 933.178 1287.46 932.475 1315.99 934.609 C 1319.77 934.891 1325.29 936.378 1328.9 937.639 C 1367.63 951.169 1384.94 994.843 1358.98 1029.05 C 1350.63 1040.09 1341.99 1045.4 1331.11 1053.11 C 1345.57 1073.76 1360.26 1097.33 1374.32 1118.57 C 1367.78 1118.83 1355.4 1119.79 1349.58 1117.51 C 1338.35 1102.15 1319.26 1072.06 1309.78 1055.48 L 1251.49 1055.66 C 1251.64 1076.84 1251.63 1098.03 1251.47 1119.21 C 1244.91 1119.63 1236.27 1119.47 1229.55 1119.53 L 1229.51 1002.63 C 1229.43 981.217 1228.56 953.862 1229.56 932.896 z M 1251.92 1036.13 C 1275.75 1036.09 1318.03 1039.73 1335.73 1025 C 1345.32 1016.24 1348.9 1008.51 1349.63 995.559 C 1351.66 959.288 1318.7 952.273 1290.46 952.123 C 1277.71 952.164 1264.96 952.276 1252.21 952.458 C 1250.89 958.784 1251.42 974.8 1251.48 981.863 C 1251.76 999.951 1251.91 1018.04 1251.92 1036.13 z" fill-rule="evenodd" fill="#FFFFFF" fill-opacity="1"/>
  <path d="M 1019.99 933.318 C 1050.24 934.074 1084.15 931.417 1113.5 936.428 C 1148.37 942.38 1168.5 976.36 1158.94 1009.95 C 1152.45 1032.74 1140.6 1040.66 1121.41 1052.09 C 1132.54 1071.75 1150.51 1098.35 1162.86 1118.34 C 1156.51 1118.6 1145.21 1119.47 1139.52 1117.49 C 1126.02 1097.28 1111.65 1076.64 1099.62 1055.6 C 1080.29 1055.47 1060.96 1055.47 1041.64 1055.58 L 1041.67 1118.07 L 1019.66 1118.05 C 1018.79 1072.34 1020.14 1026.12 1019.55 980.351 C 1019.36 965.844 1018.83 947.583 1019.99 933.318 z M 1041.56 1037.12 C 1069.6 1037 1103.52 1041.03 1126.15 1025.02 C 1135.57 1015.7 1138.46 1008.6 1138.83 995.111 C 1140.23 944.114 1076.59 951.948 1042.25 952.398 C 1041 958.624 1041.53 974.315 1041.55 981.19 C 1041.69 999.833 1041.69 1018.48 1041.56 1037.12 z" fill-rule="evenodd" fill="#FFFFFF" fill-opacity="1"/>
  <path d="M 1499.07 933.199 C 1505.51 933.042 1512.61 933.257 1519.1 933.327 C 1536.58 969.835 1552.66 1008.06 1569.98 1044.75 C 1576.7 1059 1582.96 1073.95 1589.33 1088.4 C 1592.93 1096.58 1598.98 1108.65 1601.35 1116.57 C 1597.32 1120.05 1585.13 1118.65 1579.47 1118.45 C 1573.67 1105.74 1564.13 1081.39 1557.24 1069.99 L 1517.5 1070.17 C 1501.92 1070.23 1474.42 1070.9 1459.51 1069.58 C 1450.99 1086.39 1444.23 1100.8 1437.05 1118.35 C 1429.48 1118.66 1421.47 1118.48 1413.85 1118.43 C 1426.03 1094.98 1490.39 941.651 1499.07 933.199 z M 1507.48 1051.74 L 1549.9 1051.45 C 1544.27 1039.51 1512.69 961.894 1508.55 957.685 C 1503.67 964.439 1497.83 979.284 1494.15 987.252 C 1484.5 1008.16 1475.72 1031.24 1464.89 1051.53 L 1507.48 1051.74 z" fill-rule="evenodd" fill="#FFFFFF" fill-opacity="1"/>
  <path d="M 1889.17 933.585 C 1895.43 933.06 1904.81 933.293 1911.33 933.27 C 1913.02 970.423 1910.52 1014.65 1911.16 1052.57 C 1911.34 1063.64 1911.2 1109.07 1909.92 1118.28 L 1893.43 1118.29 L 1839.03 1047.51 C 1819.69 1022.06 1802.64 998.797 1782.53 973.372 C 1781.74 988.524 1782.31 1008.85 1782.31 1024.48 L 1782.36 1118.39 L 1760.49 1118.46 C 1758.51 1061.71 1761.44 1003.33 1760.25 946.403 C 1760.17 942.619 1759.81 936.377 1761.8 933.286 L 1778.45 933.433 C 1786.3 940.977 1804.29 966.711 1812 976.535 C 1837.71 1009.31 1862.09 1043.09 1889.38 1074.66 C 1889.95 1059.78 1889.42 1041.91 1889.36 1026.85 L 1889.17 933.585 z" fill="#FFFFFF" fill-opacity="1"/>
  <path d="M 820.84 934.217 L 945.038 933.758 L 944.914 952.395 C 911.014 952.517 877.116 952.901 843.222 953.548 C 843.552 973.867 843.673 994.188 843.586 1014.51 L 933.46 1014.41 L 933.493 1033.27 L 843.276 1033.67 C 841.238 1037.86 842.321 1089.96 842.37 1098.28 C 877.182 1097.91 915.236 1097.66 949.944 1098.33 L 949.9 1118.2 C 908.758 1119.41 862.179 1118.5 820.538 1118.74 C 819.46 1077.89 820.901 1035.09 820.132 994.07 C 819.976 985.703 819.575 939.983 820.84 934.217 z" fill="#FFFFFF" fill-opacity="1"/>
  <path d="M 617.461 933.299 C 666.348 933.954 715.603 932.63 764.548 933.207 C 764.776 939.614 764.513 946.896 764.416 953.372 C 747.201 954.331 719.972 953.562 702.043 953.559 L 702.374 1058.5 L 702.268 1118.27 C 694.396 1118.56 687.052 1118.42 679.169 1118.28 C 678.068 1102.99 678.719 1077.69 678.676 1061.79 L 678.411 953.169 L 615.939 953.424 C 615.746 948.214 614.739 937.216 617.461 933.299 z" fill="#FFFFFF" fill-opacity="1"/>
  <path d="M 1658.23 934.428 C 1665.4 934.358 1672.56 934.42 1679.73 934.614 C 1681.32 977.058 1679.72 1070.4 1679.5 1116.45 C 1679.01 1117.1 1678.52 1117.75 1678.03 1118.4 L 1657.66 1118.4 C 1657.4 1097.72 1655.12 943.502 1658.23 934.428 z" fill="#FFFFFF" fill-opacity="1"/>
</svg>
