<svg xmlns="http://www.w3.org/2000/svg" viewBox="0 0 1024 1024" fill="url(#g-imp)" fill-rule="evenodd" aria-hidden="true">
  <defs><linearGradient id="g-imp" x1="0" y1="0" x2="0" y2="1"><stop offset="0%" stop-color="#5EFC8D"/><stop offset="100%" stop-color="#15803D"/></linearGradient></defs>
  <path d="M0 0 C0.33 0 0.66 0 1 0 C0.98 0.98 0.95 1.97 0.93 2.98 C0.18 49.39 14.73 92.09 47 126 C49.01 127.91 51.03 129.73 53.18 131.47 C55.6 133.51 57.77 135.77 60 138 C69.26 146.41 79.44 153.34 90 160 C90.3 160.19 90.3 160.19 91.81 161.15 C98.18 165.09 98.18 165.09 101 166 C103.8 164.83 106.17 163.25 108.62 161.46 C109.3 160.97 109.98 160.47 110.68 159.96 C111.41 159.44 112.13 158.92 112.88 158.38 C120.34 153.04 127.89 148.31 136 144 C136.58 143.68 137.17 143.36 137.77 143.03 C173.07 123.86 213.22 115.78 253.12 115.75 C253.49 115.75 253.49 115.75 255.36 115.75 C305.88 115.82 359.76 128.66 400.05 160.41 C401.03 161.16 402 161.91 403 162.69 C403.85 163.37 404.69 164.06 405.56 164.76 C408 166 408 166 410.41 165.43 C411.26 164.96 412.12 164.49 413 164 C414 163.47 415 162.94 416.03 162.4 C457.46 138.65 491.15 101.62 504.05 55.09 C508.79 36.83 509.46 18.79 509 0 C538.53 29.08 549.5 75.32 550.24 115.53 C550.48 161.98 536.16 206.62 508.06 243.62 C507.86 243.9 507.86 243.9 506.81 245.28 C503.39 249.69 499.56 253.55 495.42 257.29 C493.12 261.67 494.79 265.39 496 270 C496.35 271.65 496.68 273.29 497 274.95 C497.08 275.36 497.08 275.36 497.5 277.48 C501.65 299.29 502.86 320.88 501 343 C505.9 339.51 510.41 335.79 514.81 331.69 C519.46 327.36 524.23 323.28 529.17 319.3 C531.68 317.26 534.14 315.18 536.58 313.07 C544.43 306.32 552.63 300.09 561 294 C561.35 293.74 561.35 293.74 563.13 292.45 C607.3 260.35 607.3 260.35 625 260 C627.87 261.06 627.87 261.06 630 263 C631.54 268.29 630.48 272.34 629.02 277.46 C628.8 278.29 628.57 279.12 628.34 279.97 C625.45 290.28 622.05 300.42 618.62 310.56 C618.45 311.08 618.45 311.08 617.57 313.7 C556.79 494.76 556.79 494.76 498 526 C490.85 529.51 483.96 531.6 476 532 C475.99 532.37 475.99 532.37 475.96 534.25 C474.64 564.41 464.67 598.33 443 620 C441.97 621.19 440.94 622.38 439.91 623.58 C435.76 628.35 431.33 632.82 426.85 637.29 C425.99 638.15 425.13 639 424.24 639.89 C422.44 641.7 420.63 643.5 418.82 645.31 C416.07 648.05 413.33 650.81 410.58 653.56 C408.82 655.32 407.05 657.08 405.29 658.85 C404.88 659.25 404.88 659.25 402.83 661.31 C398.66 665.46 394.42 669.42 389.97 673.25 C386.37 676.45 383.01 679.9 379.63 683.34 C378.07 684.91 376.51 686.48 374.95 688.06 C372.52 690.51 370.09 692.97 367.67 695.43 C365.3 697.82 362.94 700.21 360.57 702.59 C360.21 702.96 360.21 702.96 358.36 704.84 C357.68 705.52 357.01 706.2 356.31 706.9 C355.72 707.5 355.13 708.1 354.52 708.72 C353 710 353 710 351 710 C351 710.66 351 711.32 351 712 C349.6 713.41 349.6 713.41 347.62 715.06 C346.9 715.69 346.18 716.32 345.43 716.97 C343.79 718.34 342.1 719.66 340.38 720.93 C333.6 726.26 331.83 730.62 330.04 738.95 C327.56 749.7 321.16 759.77 314 768 C313.58 768.56 313.16 769.13 312.72 769.71 C309.39 774.03 305.32 777.32 301.06 780.69 C300.48 781.15 299.89 781.62 299.29 782.09 C289.06 790 289.06 790 285 790 C285.01 789.35 285.01 789.35 285.04 786.05 C285.04 784.33 285.05 782.6 285.06 780.88 C285.07 780.02 285.08 779.16 285.09 778.28 C285.11 773.73 284.93 769.48 284 765 C283.9 765.31 283.9 765.31 283.39 766.89 C277.26 785.75 270.45 801.87 256 816 C244.78 811.21 237.75 796.76 233.15 786.02 C231.59 782.07 230.24 778.06 229 774 C228.63 772.79 228.25 771.59 227.87 770.35 C227 767 227 767 227 763 C226.34 763 225.68 763 225 763 C223.67 771.98 223.91 780.95 224 790 C215.92 786.51 209.56 781.83 203 776 C202.29 775.38 201.58 774.77 200.84 774.13 C191.17 765.19 182.67 751.49 180.38 738.45 C178.2 726.54 172 721.26 162.98 713.71 C160.44 711.52 158.12 709.14 155.77 706.74 C153.95 704.95 152.06 703.29 150.12 701.62 C144.69 696.94 139.74 691.78 134.71 686.67 C133.96 685.91 133.21 685.16 132.44 684.38 C131.78 683.7 131.11 683.03 130.43 682.34 C128.5 680.48 126.55 678.75 124.52 677.01 C118.5 671.77 112.9 666.09 107.25 660.45 C106.65 659.86 106.05 659.26 105.43 658.64 C102.25 655.48 99.08 652.32 95.91 649.15 C92.66 645.91 89.41 642.68 86.15 639.45 C83.62 636.93 81.09 634.41 78.57 631.89 C77.37 630.7 76.17 629.51 74.97 628.32 C49.44 603.05 34.76 568.15 34 532 C32.85 531.98 31.69 531.96 30.5 531.94 C13 529.98 -2.36 517.27 -15 506 C-15.66 505.42 -16.31 504.83 -16.99 504.23 C-30.55 491.42 -40.72 474.48 -49.56 458.25 C-50.07 457.32 -50.57 456.4 -51.1 455.44 C-59.39 439.96 -66.46 423.97 -73 407.69 C-73.36 406.81 -73.71 405.92 -74.08 405.01 C-88.94 368.11 -102.6 330.65 -114.5 292.69 C-114.71 292 -114.93 291.32 -115.15 290.61 C-121.64 269.84 -121.64 269.84 -120 263 C-117.63 260.63 -117.08 260.71 -113.86 260.71 C-109.31 260.82 -105.46 261.88 -101.31 263.69 C-100.6 263.99 -99.89 264.29 -99.16 264.6 C-88.95 269.13 -79.46 275.09 -70 281 C-69.7 281.19 -69.7 281.19 -68.16 282.14 C-45.12 296.63 -23.55 314.33 -3.51 332.7 C5.73 341.15 5.73 341.15 10 344 C9.84 342.99 9.68 341.97 9.51 340.93 C8.7 334.67 8.76 328.42 8.75 322.12 C8.75 321.77 8.75 321.77 8.75 319.99 C8.76 302.46 10.16 285.08 14.82 268.12 C16.47 262.01 16.47 262.01 15 259 C13.28 256.89 11.53 254.88 9.69 252.88 C-16.83 222.88 -32.29 184.3 -38 145 C-38.1 144.33 -38.21 143.66 -38.31 142.97 C-39.39 134.98 -39.24 126.87 -39.25 118.81 C-39.25 118.01 -39.25 117.21 -39.25 116.38 C-39.23 103.38 -38.56 90.79 -36 78 C-35.83 77.14 -35.67 76.28 -35.5 75.39 C-30.24 48.97 -19.46 19.46 0 0 Z M64 400 C63.72 407.4 64.75 414.08 66.25 421.31 C66.45 422.36 66.66 423.41 66.87 424.5 C68.95 434.75 71.91 444.61 76.69 453.94 C77.03 454.61 77.37 455.28 77.73 455.97 C88.32 476.24 103.71 491.96 125.69 499.07 C143.88 504.18 162.04 502.62 179 494 C186.45 489.8 193.77 484.88 200 479 C200 478.34 200 477.68 200 477 C199.67 476.84 199.67 476.84 197.98 476.01 C182.89 468.62 168.15 460.87 153.59 452.48 C149.77 450.3 145.92 448.18 142.06 446.06 C131.94 440.47 121.98 434.62 112.01 428.77 C109.13 427.07 106.24 425.39 103.35 423.71 C92.68 417.47 82.17 411.02 71.79 404.32 C70.91 403.75 70.04 403.19 69.14 402.61 C68.36 402.1 67.58 401.6 66.78 401.08 C65 400 65 400 64 400 Z M440.84 402.46 C440 402.99 439.15 403.52 438.27 404.06 C437.81 404.35 437.81 404.35 435.5 405.81 C433.58 407.01 431.66 408.21 429.74 409.41 C428.78 410.01 427.81 410.62 426.82 411.24 C419.91 415.55 412.95 419.77 406 424 C405.69 424.19 405.69 424.19 404.11 425.15 C393.8 431.43 383.35 437.44 372.85 443.38 C370.01 445 367.17 446.62 364.33 448.25 C346.51 458.39 328.28 467.72 310 477 C311.28 480.84 313.58 482.39 316.69 484.75 C316.98 484.97 316.98 484.97 318.43 486.08 C334.38 497.89 353.92 504.14 373.75 501.5 C393.12 498.44 410.29 489.1 422.3 473.29 C438.19 451.34 445.78 426.94 447 400 C444.31 400 443.12 401.03 440.84 402.46 Z " transform="translate(257,108)"/>

  <path d="M64 400 C63.72 407.4 64.75 414.08 66.25 421.31 C66.45 422.36 66.66 423.41 66.87 424.5 C68.95 434.75 71.91 444.61 76.69 453.94 C77.03 454.61 77.37 455.28 77.73 455.97 C88.32 476.24 103.71 491.96 125.69 499.07 C143.88 504.18 162.04 502.62 179 494 C186.45 489.8 193.77 484.88 200 479 C200 478.34 200 477.68 200 477 C199.67 476.84 199.67 476.84 197.98 476.01 C182.89 468.62 168.15 460.87 153.59 452.48 C149.77 450.3 145.92 448.18 142.06 446.06 C131.94 440.47 121.98 434.62 112.01 428.77 C109.13 427.07 106.24 425.39 103.35 423.71 C92.68 417.47 82.17 411.02 71.79 404.32 C70.91 403.75 70.04 403.19 69.14 402.61 C68.36 402.1 67.58 401.6 66.78 401.08 C65 400 65 400 64 400 Z" fill="#0D0D18" transform="translate(257,108)"/>
  <path d="M440.84 402.46 C440 402.99 439.15 403.52 438.27 404.06 C437.81 404.35 437.81 404.35 435.5 405.81 C433.58 407.01 431.66 408.21 429.74 409.41 C428.78 410.01 427.81 410.62 426.82 411.24 C419.91 415.55 412.95 419.77 406 424 C405.69 424.19 405.69 424.19 404.11 425.15 C393.8 431.43 383.35 437.44 372.85 443.38 C370.01 445 367.17 446.62 364.33 448.25 C346.51 458.39 328.28 467.72 310 477 C311.28 480.84 313.58 482.39 316.69 484.75 C316.98 484.97 316.98 484.97 318.43 486.08 C334.38 497.89 353.92 504.14 373.75 501.5 C393.12 498.44 410.29 489.1 422.3 473.29 C438.19 451.34 445.78 426.94 447 400 C444.31 400 443.12 401.03 440.84 402.46 Z" fill="#0D0D18" transform="translate(257,108)"/>
</svg>
